<svg width="132" height="145" viewBox="0 0 132 145" fill="none" xmlns="http://www.w3.org/2000/svg">
<path d="M-12.0584 0.470779C-12.0584 0.730783 -12.2692 0.941558 -12.5292 0.941558C-12.7892 0.941558 -13 0.730783 -13 0.470779C-13 0.210775 -12.7892 0 -12.5292 0C-12.2692 0 -12.0584 0.210775 -12.0584 0.470779Z" fill="#161F32" fill-opacity="0.44"/>
<path d="M-12.0584 42.8409C-12.0584 43.1009 -12.2692 43.3117 -12.5292 43.3117C-12.7892 43.3117 -13 43.1009 -13 42.8409C-13 42.5809 -12.7892 42.3701 -12.5292 42.3701C-12.2692 42.3701 -12.0584 42.5809 -12.0584 42.8409Z" fill="#161F32" fill-opacity="0.44"/>
<path d="M-12.0584 85.211C-12.0584 85.471 -12.2692 85.6818 -12.5292 85.6818C-12.7892 85.6818 -13 85.471 -13 85.211C-13 84.951 -12.7892 84.7403 -12.5292 84.7403C-12.2692 84.7403 -12.0584 84.951 -12.0584 85.211Z" fill="#161F32" fill-opacity="0.44"/>
<path d="M-12.0584 8.94481C-12.0584 9.20481 -12.2692 9.41558 -12.5292 9.41558C-12.7892 9.41558 -13 9.20481 -13 8.94481C-13 8.6848 -12.7892 8.47403 -12.5292 8.47403C-12.2692 8.47403 -12.0584 8.6848 -12.0584 8.94481Z" fill="#161F32" fill-opacity="0.44"/>
<path d="M-12.0584 51.3149C-12.0584 51.5749 -12.2692 51.7857 -12.5292 51.7857C-12.7892 51.7857 -13 51.5749 -13 51.3149C-13 51.0549 -12.7892 50.8442 -12.5292 50.8442C-12.2692 50.8442 -12.0584 51.0549 -12.0584 51.3149Z" fill="#161F32" fill-opacity="0.44"/>
<path d="M-12.0584 93.6851C-12.0584 93.9451 -12.2692 94.1559 -12.5292 94.1559C-12.7892 94.1559 -13 93.9451 -13 93.6851C-13 93.4251 -12.7892 93.2143 -12.5292 93.2143C-12.2692 93.2143 -12.0584 93.4251 -12.0584 93.6851Z" fill="#161F32" fill-opacity="0.44"/>
<path d="M-12.0584 127.581C-12.0584 127.841 -12.2692 128.052 -12.5292 128.052C-12.7892 128.052 -13 127.841 -13 127.581C-13 127.321 -12.7892 127.11 -12.5292 127.11C-12.2692 127.11 -12.0584 127.321 -12.0584 127.581Z" fill="#161F32" fill-opacity="0.44"/>
<path d="M-12.0584 17.4188C-12.0584 17.6788 -12.2692 17.8896 -12.5292 17.8896C-12.7892 17.8896 -13 17.6788 -13 17.4188C-13 17.1588 -12.7892 16.9481 -12.5292 16.9481C-12.2692 16.9481 -12.0584 17.1588 -12.0584 17.4188Z" fill="#161F32" fill-opacity="0.44"/>
<path d="M-12.0584 59.789C-12.0584 60.049 -12.2692 60.2597 -12.5292 60.2597C-12.7892 60.2597 -13 60.049 -13 59.789C-13 59.529 -12.7892 59.3182 -12.5292 59.3182C-12.2692 59.3182 -12.0584 59.529 -12.0584 59.789Z" fill="#161F32" fill-opacity="0.44"/>
<path d="M-12.0584 102.159C-12.0584 102.419 -12.2692 102.63 -12.5292 102.63C-12.7892 102.63 -13 102.419 -13 102.159C-13 101.899 -12.7892 101.688 -12.5292 101.688C-12.2692 101.688 -12.0584 101.899 -12.0584 102.159Z" fill="#161F32" fill-opacity="0.44"/>
<path d="M-12.0584 136.055C-12.0584 136.315 -12.2692 136.526 -12.5292 136.526C-12.7892 136.526 -13 136.315 -13 136.055C-13 135.795 -12.7892 135.584 -12.5292 135.584C-12.2692 135.584 -12.0584 135.795 -12.0584 136.055Z" fill="#161F32" fill-opacity="0.44"/>
<path d="M-12.0584 144.529C-12.0584 144.789 -12.2692 145 -12.5292 145C-12.7892 145 -13 144.789 -13 144.529C-13 144.269 -12.7892 144.058 -12.5292 144.058C-12.2692 144.058 -12.0584 144.269 -12.0584 144.529Z" fill="#161F32" fill-opacity="0.44"/>
<path d="M-12.0584 25.8929C-12.0584 26.1529 -12.2692 26.3636 -12.5292 26.3636C-12.7892 26.3636 -13 26.1529 -13 25.8929C-13 25.6329 -12.7892 25.4221 -12.5292 25.4221C-12.2692 25.4221 -12.0584 25.6329 -12.0584 25.8929Z" fill="#161F32" fill-opacity="0.44"/>
<path d="M-12.0584 68.263C-12.0584 68.523 -12.2692 68.7338 -12.5292 68.7338C-12.7892 68.7338 -13 68.523 -13 68.263C-13 68.003 -12.7892 67.7922 -12.5292 67.7922C-12.2692 67.7922 -12.0584 68.003 -12.0584 68.263Z" fill="#161F32" fill-opacity="0.44"/>
<path d="M-12.0584 110.633C-12.0584 110.893 -12.2692 111.104 -12.5292 111.104C-12.7892 111.104 -13 110.893 -13 110.633C-13 110.373 -12.7892 110.162 -12.5292 110.162C-12.2692 110.162 -12.0584 110.373 -12.0584 110.633Z" fill="#161F32" fill-opacity="0.44"/>
<path d="M-12.0584 34.3669C-12.0584 34.6269 -12.2692 34.8377 -12.5292 34.8377C-12.7892 34.8377 -13 34.6269 -13 34.3669C-13 34.1069 -12.7892 33.8961 -12.5292 33.8961C-12.2692 33.8961 -12.0584 34.1069 -12.0584 34.3669Z" fill="#161F32" fill-opacity="0.44"/>
<path d="M-12.0584 76.737C-12.0584 76.997 -12.2692 77.2078 -12.5292 77.2078C-12.7892 77.2078 -13 76.997 -13 76.737C-13 76.477 -12.7892 76.2662 -12.5292 76.2662C-12.2692 76.2662 -12.0584 76.477 -12.0584 76.737Z" fill="#161F32" fill-opacity="0.44"/>
<path d="M-12.0584 119.107C-12.0584 119.367 -12.2692 119.578 -12.5292 119.578C-12.7892 119.578 -13 119.367 -13 119.107C-13 118.847 -12.7892 118.636 -12.5292 118.636C-12.2692 118.636 -12.0584 118.847 -12.0584 119.107Z" fill="#161F32" fill-opacity="0.44"/>
<path d="M38.7857 0.470779C38.7857 0.730783 38.5749 0.941558 38.3149 0.941558C38.0549 0.941558 37.8442 0.730783 37.8442 0.470779C37.8442 0.210775 38.0549 0 38.3149 0C38.5749 0 38.7857 0.210775 38.7857 0.470779Z" fill="#161F32" fill-opacity="0.44"/>
<path d="M38.7857 42.8409C38.7857 43.1009 38.5749 43.3117 38.3149 43.3117C38.0549 43.3117 37.8442 43.1009 37.8442 42.8409C37.8442 42.5809 38.0549 42.3701 38.3149 42.3701C38.5749 42.3701 38.7857 42.5809 38.7857 42.8409Z" fill="#161F32" fill-opacity="0.44"/>
<path d="M38.7857 85.211C38.7857 85.471 38.5749 85.6818 38.3149 85.6818C38.0549 85.6818 37.8442 85.471 37.8442 85.211C37.8442 84.951 38.0549 84.7403 38.3149 84.7403C38.5749 84.7403 38.7857 84.951 38.7857 85.211Z" fill="#161F32" fill-opacity="0.44"/>
<path d="M38.7857 8.94481C38.7857 9.20481 38.5749 9.41558 38.3149 9.41558C38.0549 9.41558 37.8442 9.20481 37.8442 8.94481C37.8442 8.6848 38.0549 8.47403 38.3149 8.47403C38.5749 8.47403 38.7857 8.6848 38.7857 8.94481Z" fill="#161F32" fill-opacity="0.44"/>
<path d="M38.7857 51.3149C38.7857 51.5749 38.5749 51.7857 38.3149 51.7857C38.0549 51.7857 37.8442 51.5749 37.8442 51.3149C37.8442 51.0549 38.0549 50.8442 38.3149 50.8442C38.5749 50.8442 38.7857 51.0549 38.7857 51.3149Z" fill="#161F32" fill-opacity="0.44"/>
<path d="M38.7857 93.6851C38.7857 93.9451 38.5749 94.1559 38.3149 94.1559C38.0549 94.1559 37.8442 93.9451 37.8442 93.6851C37.8442 93.4251 38.0549 93.2143 38.3149 93.2143C38.5749 93.2143 38.7857 93.4251 38.7857 93.6851Z" fill="#161F32" fill-opacity="0.44"/>
<path d="M38.7857 127.581C38.7857 127.841 38.5749 128.052 38.3149 128.052C38.0549 128.052 37.8442 127.841 37.8442 127.581C37.8442 127.321 38.0549 127.11 38.3149 127.11C38.5749 127.11 38.7857 127.321 38.7857 127.581Z" fill="#161F32" fill-opacity="0.44"/>
<path d="M38.7857 17.4188C38.7857 17.6788 38.5749 17.8896 38.3149 17.8896C38.0549 17.8896 37.8442 17.6788 37.8442 17.4188C37.8442 17.1588 38.0549 16.9481 38.3149 16.9481C38.5749 16.9481 38.7857 17.1588 38.7857 17.4188Z" fill="#161F32" fill-opacity="0.44"/>
<path d="M38.7857 59.789C38.7857 60.049 38.5749 60.2597 38.3149 60.2597C38.0549 60.2597 37.8442 60.049 37.8442 59.789C37.8442 59.529 38.0549 59.3182 38.3149 59.3182C38.5749 59.3182 38.7857 59.529 38.7857 59.789Z" fill="#161F32" fill-opacity="0.44"/>
<path d="M38.7857 102.159C38.7857 102.419 38.5749 102.63 38.3149 102.63C38.0549 102.63 37.8442 102.419 37.8442 102.159C37.8442 101.899 38.0549 101.688 38.3149 101.688C38.5749 101.688 38.7857 101.899 38.7857 102.159Z" fill="#161F32" fill-opacity="0.44"/>
<path d="M38.7857 136.055C38.7857 136.315 38.5749 136.526 38.3149 136.526C38.0549 136.526 37.8442 136.315 37.8442 136.055C37.8442 135.795 38.0549 135.584 38.3149 135.584C38.5749 135.584 38.7857 135.795 38.7857 136.055Z" fill="#161F32" fill-opacity="0.44"/>
<path d="M38.7857 144.529C38.7857 144.789 38.5749 145 38.3149 145C38.0549 145 37.8442 144.789 37.8442 144.529C37.8442 144.269 38.0549 144.058 38.3149 144.058C38.5749 144.058 38.7857 144.269 38.7857 144.529Z" fill="#161F32" fill-opacity="0.44"/>
<path d="M38.7857 25.8929C38.7857 26.1529 38.5749 26.3636 38.3149 26.3636C38.0549 26.3636 37.8442 26.1529 37.8442 25.8929C37.8442 25.6329 38.0549 25.4221 38.3149 25.4221C38.5749 25.4221 38.7857 25.6329 38.7857 25.8929Z" fill="#161F32" fill-opacity="0.44"/>
<path d="M38.7857 68.263C38.7857 68.523 38.5749 68.7338 38.3149 68.7338C38.0549 68.7338 37.8442 68.523 37.8442 68.263C37.8442 68.003 38.0549 67.7922 38.3149 67.7922C38.5749 67.7922 38.7857 68.003 38.7857 68.263Z" fill="#161F32" fill-opacity="0.44"/>
<path d="M38.7857 110.633C38.7857 110.893 38.5749 111.104 38.3149 111.104C38.0549 111.104 37.8442 110.893 37.8442 110.633C37.8442 110.373 38.0549 110.162 38.3149 110.162C38.5749 110.162 38.7857 110.373 38.7857 110.633Z" fill="#161F32" fill-opacity="0.44"/>
<path d="M38.7857 34.3669C38.7857 34.6269 38.5749 34.8377 38.3149 34.8377C38.0549 34.8377 37.8442 34.6269 37.8442 34.3669C37.8442 34.1069 38.0549 33.8961 38.3149 33.8961C38.5749 33.8961 38.7857 34.1069 38.7857 34.3669Z" fill="#161F32" fill-opacity="0.44"/>
<path d="M38.7857 76.737C38.7857 76.997 38.5749 77.2078 38.3149 77.2078C38.0549 77.2078 37.8442 76.997 37.8442 76.737C37.8442 76.477 38.0549 76.2662 38.3149 76.2662C38.5749 76.2662 38.7857 76.477 38.7857 76.737Z" fill="#161F32" fill-opacity="0.44"/>
<path d="M38.7857 119.107C38.7857 119.367 38.5749 119.578 38.3149 119.578C38.0549 119.578 37.8442 119.367 37.8442 119.107C37.8442 118.847 38.0549 118.636 38.3149 118.636C38.5749 118.636 38.7857 118.847 38.7857 119.107Z" fill="#161F32" fill-opacity="0.44"/>
<path d="M89.6299 0.470779C89.6299 0.730783 89.4191 0.941558 89.1591 0.941558C88.8991 0.941558 88.6883 0.730783 88.6883 0.470779C88.6883 0.210775 88.8991 0 89.1591 0C89.4191 0 89.6299 0.210775 89.6299 0.470779Z" fill="#161F32" fill-opacity="0.44"/>
<path d="M89.6299 42.8409C89.6299 43.1009 89.4191 43.3117 89.1591 43.3117C88.8991 43.3117 88.6883 43.1009 88.6883 42.8409C88.6883 42.5809 88.8991 42.3701 89.1591 42.3701C89.4191 42.3701 89.6299 42.5809 89.6299 42.8409Z" fill="#161F32" fill-opacity="0.44"/>
<path d="M89.6299 85.211C89.6299 85.471 89.4191 85.6818 89.1591 85.6818C88.8991 85.6818 88.6883 85.471 88.6883 85.211C88.6883 84.951 88.8991 84.7403 89.1591 84.7403C89.4191 84.7403 89.6299 84.951 89.6299 85.211Z" fill="#161F32" fill-opacity="0.44"/>
<path d="M89.6299 8.94481C89.6299 9.20481 89.4191 9.41558 89.1591 9.41558C88.8991 9.41558 88.6883 9.20481 88.6883 8.94481C88.6883 8.6848 88.8991 8.47403 89.1591 8.47403C89.4191 8.47403 89.6299 8.6848 89.6299 8.94481Z" fill="#161F32" fill-opacity="0.44"/>
<path d="M89.6299 51.3149C89.6299 51.5749 89.4191 51.7857 89.1591 51.7857C88.8991 51.7857 88.6883 51.5749 88.6883 51.3149C88.6883 51.0549 88.8991 50.8442 89.1591 50.8442C89.4191 50.8442 89.6299 51.0549 89.6299 51.3149Z" fill="#161F32" fill-opacity="0.44"/>
<path d="M89.6299 93.6851C89.6299 93.9451 89.4191 94.1559 89.1591 94.1559C88.8991 94.1559 88.6883 93.9451 88.6883 93.6851C88.6883 93.4251 88.8991 93.2143 89.1591 93.2143C89.4191 93.2143 89.6299 93.4251 89.6299 93.6851Z" fill="#161F32" fill-opacity="0.44"/>
<path d="M89.6299 127.581C89.6299 127.841 89.4191 128.052 89.1591 128.052C88.8991 128.052 88.6883 127.841 88.6883 127.581C88.6883 127.321 88.8991 127.11 89.1591 127.11C89.4191 127.11 89.6299 127.321 89.6299 127.581Z" fill="#161F32" fill-opacity="0.44"/>
<path d="M89.6299 17.4188C89.6299 17.6788 89.4191 17.8896 89.1591 17.8896C88.8991 17.8896 88.6883 17.6788 88.6883 17.4188C88.6883 17.1588 88.8991 16.9481 89.1591 16.9481C89.4191 16.9481 89.6299 17.1588 89.6299 17.4188Z" fill="#161F32" fill-opacity="0.44"/>
<path d="M89.6299 59.789C89.6299 60.049 89.4191 60.2597 89.1591 60.2597C88.8991 60.2597 88.6883 60.049 88.6883 59.789C88.6883 59.529 88.8991 59.3182 89.1591 59.3182C89.4191 59.3182 89.6299 59.529 89.6299 59.789Z" fill="#161F32" fill-opacity="0.44"/>
<path d="M89.6299 102.159C89.6299 102.419 89.4191 102.63 89.1591 102.63C88.8991 102.63 88.6883 102.419 88.6883 102.159C88.6883 101.899 88.8991 101.688 89.1591 101.688C89.4191 101.688 89.6299 101.899 89.6299 102.159Z" fill="#161F32" fill-opacity="0.44"/>
<path d="M89.6299 136.055C89.6299 136.315 89.4191 136.526 89.1591 136.526C88.8991 136.526 88.6883 136.315 88.6883 136.055C88.6883 135.795 88.8991 135.584 89.1591 135.584C89.4191 135.584 89.6299 135.795 89.6299 136.055Z" fill="#161F32" fill-opacity="0.44"/>
<path d="M89.6299 144.529C89.6299 144.789 89.4191 145 89.1591 145C88.8991 145 88.6883 144.789 88.6883 144.529C88.6883 144.269 88.8991 144.058 89.1591 144.058C89.4191 144.058 89.6299 144.269 89.6299 144.529Z" fill="#161F32" fill-opacity="0.44"/>
<path d="M89.6299 25.8929C89.6299 26.1529 89.4191 26.3636 89.1591 26.3636C88.8991 26.3636 88.6883 26.1529 88.6883 25.8929C88.6883 25.6329 88.8991 25.4221 89.1591 25.4221C89.4191 25.4221 89.6299 25.6329 89.6299 25.8929Z" fill="#161F32" fill-opacity="0.44"/>
<path d="M89.6299 68.263C89.6299 68.523 89.4191 68.7338 89.1591 68.7338C88.8991 68.7338 88.6883 68.523 88.6883 68.263C88.6883 68.003 88.8991 67.7922 89.1591 67.7922C89.4191 67.7922 89.6299 68.003 89.6299 68.263Z" fill="#161F32" fill-opacity="0.44"/>
<path d="M89.6299 110.633C89.6299 110.893 89.4191 111.104 89.1591 111.104C88.8991 111.104 88.6883 110.893 88.6883 110.633C88.6883 110.373 88.8991 110.162 89.1591 110.162C89.4191 110.162 89.6299 110.373 89.6299 110.633Z" fill="#161F32" fill-opacity="0.44"/>
<path d="M89.6299 34.3669C89.6299 34.6269 89.4191 34.8377 89.1591 34.8377C88.8991 34.8377 88.6883 34.6269 88.6883 34.3669C88.6883 34.1069 88.8991 33.8961 89.1591 33.8961C89.4191 33.8961 89.6299 34.1069 89.6299 34.3669Z" fill="#161F32" fill-opacity="0.44"/>
<path d="M89.6299 76.737C89.6299 76.997 89.4191 77.2078 89.1591 77.2078C88.8991 77.2078 88.6883 76.997 88.6883 76.737C88.6883 76.477 88.8991 76.2662 89.1591 76.2662C89.4191 76.2662 89.6299 76.477 89.6299 76.737Z" fill="#161F32" fill-opacity="0.44"/>
<path d="M89.6299 119.107C89.6299 119.367 89.4191 119.578 89.1591 119.578C88.8991 119.578 88.6883 119.367 88.6883 119.107C88.6883 118.847 88.8991 118.636 89.1591 118.636C89.4191 118.636 89.6299 118.847 89.6299 119.107Z" fill="#161F32" fill-opacity="0.44"/>
<path d="M13.3636 0.470779C13.3636 0.730783 13.1529 0.941558 12.8929 0.941558C12.6329 0.941558 12.4221 0.730783 12.4221 0.470779C12.4221 0.210775 12.6329 0 12.8929 0C13.1529 0 13.3636 0.210775 13.3636 0.470779Z" fill="#161F32" fill-opacity="0.44"/>
<path d="M13.3636 42.8409C13.3636 43.1009 13.1529 43.3117 12.8929 43.3117C12.6329 43.3117 12.4221 43.1009 12.4221 42.8409C12.4221 42.5809 12.6329 42.3701 12.8929 42.3701C13.1529 42.3701 13.3636 42.5809 13.3636 42.8409Z" fill="#161F32" fill-opacity="0.44"/>
<path d="M13.3636 85.211C13.3636 85.471 13.1529 85.6818 12.8929 85.6818C12.6329 85.6818 12.4221 85.471 12.4221 85.211C12.4221 84.951 12.6329 84.7403 12.8929 84.7403C13.1529 84.7403 13.3636 84.951 13.3636 85.211Z" fill="#161F32" fill-opacity="0.44"/>
<path d="M13.3636 8.94481C13.3636 9.20481 13.1529 9.41558 12.8929 9.41558C12.6329 9.41558 12.4221 9.20481 12.4221 8.94481C12.4221 8.6848 12.6329 8.47403 12.8929 8.47403C13.1529 8.47403 13.3636 8.6848 13.3636 8.94481Z" fill="#161F32" fill-opacity="0.44"/>
<path d="M13.3636 51.3149C13.3636 51.5749 13.1529 51.7857 12.8929 51.7857C12.6329 51.7857 12.4221 51.5749 12.4221 51.3149C12.4221 51.0549 12.6329 50.8442 12.8929 50.8442C13.1529 50.8442 13.3636 51.0549 13.3636 51.3149Z" fill="#161F32" fill-opacity="0.44"/>
<path d="M13.3636 93.6851C13.3636 93.9451 13.1529 94.1559 12.8929 94.1559C12.6329 94.1559 12.4221 93.9451 12.4221 93.6851C12.4221 93.4251 12.6329 93.2143 12.8929 93.2143C13.1529 93.2143 13.3636 93.4251 13.3636 93.6851Z" fill="#161F32" fill-opacity="0.44"/>
<path d="M13.3636 127.581C13.3636 127.841 13.1529 128.052 12.8929 128.052C12.6329 128.052 12.4221 127.841 12.4221 127.581C12.4221 127.321 12.6329 127.11 12.8929 127.11C13.1529 127.11 13.3636 127.321 13.3636 127.581Z" fill="#161F32" fill-opacity="0.44"/>
<path d="M13.3636 17.4188C13.3636 17.6788 13.1529 17.8896 12.8929 17.8896C12.6329 17.8896 12.4221 17.6788 12.4221 17.4188C12.4221 17.1588 12.6329 16.9481 12.8929 16.9481C13.1529 16.9481 13.3636 17.1588 13.3636 17.4188Z" fill="#161F32" fill-opacity="0.44"/>
<path d="M13.3636 59.789C13.3636 60.049 13.1529 60.2597 12.8929 60.2597C12.6329 60.2597 12.4221 60.049 12.4221 59.789C12.4221 59.529 12.6329 59.3182 12.8929 59.3182C13.1529 59.3182 13.3636 59.529 13.3636 59.789Z" fill="#161F32" fill-opacity="0.44"/>
<path d="M13.3636 102.159C13.3636 102.419 13.1529 102.63 12.8929 102.63C12.6329 102.63 12.4221 102.419 12.4221 102.159C12.4221 101.899 12.6329 101.688 12.8929 101.688C13.1529 101.688 13.3636 101.899 13.3636 102.159Z" fill="#161F32" fill-opacity="0.44"/>
<path d="M13.3636 136.055C13.3636 136.315 13.1529 136.526 12.8929 136.526C12.6329 136.526 12.4221 136.315 12.4221 136.055C12.4221 135.795 12.6329 135.584 12.8929 135.584C13.1529 135.584 13.3636 135.795 13.3636 136.055Z" fill="#161F32" fill-opacity="0.44"/>
<path d="M13.3636 144.529C13.3636 144.789 13.1529 145 12.8929 145C12.6329 145 12.4221 144.789 12.4221 144.529C12.4221 144.269 12.6329 144.058 12.8929 144.058C13.1529 144.058 13.3636 144.269 13.3636 144.529Z" fill="#161F32" fill-opacity="0.44"/>
<path d="M13.3636 25.8929C13.3636 26.1529 13.1529 26.3636 12.8929 26.3636C12.6329 26.3636 12.4221 26.1529 12.4221 25.8929C12.4221 25.6329 12.6329 25.4221 12.8929 25.4221C13.1529 25.4221 13.3636 25.6329 13.3636 25.8929Z" fill="#161F32" fill-opacity="0.44"/>
<path d="M13.3636 68.263C13.3636 68.523 13.1529 68.7338 12.8929 68.7338C12.6329 68.7338 12.4221 68.523 12.4221 68.263C12.4221 68.003 12.6329 67.7922 12.8929 67.7922C13.1529 67.7922 13.3636 68.003 13.3636 68.263Z" fill="#161F32" fill-opacity="0.44"/>
<path d="M13.3636 110.633C13.3636 110.893 13.1529 111.104 12.8929 111.104C12.6329 111.104 12.4221 110.893 12.4221 110.633C12.4221 110.373 12.6329 110.162 12.8929 110.162C13.1529 110.162 13.3636 110.373 13.3636 110.633Z" fill="#161F32" fill-opacity="0.44"/>
<path d="M13.3636 34.3669C13.3636 34.6269 13.1529 34.8377 12.8929 34.8377C12.6329 34.8377 12.4221 34.6269 12.4221 34.3669C12.4221 34.1069 12.6329 33.8961 12.8929 33.8961C13.1529 33.8961 13.3636 34.1069 13.3636 34.3669Z" fill="#161F32" fill-opacity="0.44"/>
<path d="M13.3636 76.737C13.3636 76.997 13.1529 77.2078 12.8929 77.2078C12.6329 77.2078 12.4221 76.997 12.4221 76.737C12.4221 76.477 12.6329 76.2662 12.8929 76.2662C13.1529 76.2662 13.3636 76.477 13.3636 76.737Z" fill="#161F32" fill-opacity="0.44"/>
<path d="M13.3636 119.107C13.3636 119.367 13.1529 119.578 12.8929 119.578C12.6329 119.578 12.4221 119.367 12.4221 119.107C12.4221 118.847 12.6329 118.636 12.8929 118.636C13.1529 118.636 13.3636 118.847 13.3636 119.107Z" fill="#161F32" fill-opacity="0.44"/>
<path d="M64.2078 0.470779C64.2078 0.730783 63.997 0.941558 63.737 0.941558C63.477 0.941558 63.2662 0.730783 63.2662 0.470779C63.2662 0.210775 63.477 0 63.737 0C63.997 0 64.2078 0.210775 64.2078 0.470779Z" fill="#161F32" fill-opacity="0.44"/>
<path d="M64.2078 42.8409C64.2078 43.1009 63.997 43.3117 63.737 43.3117C63.477 43.3117 63.2662 43.1009 63.2662 42.8409C63.2662 42.5809 63.477 42.3701 63.737 42.3701C63.997 42.3701 64.2078 42.5809 64.2078 42.8409Z" fill="#161F32" fill-opacity="0.44"/>
<path d="M64.2078 85.211C64.2078 85.471 63.997 85.6818 63.737 85.6818C63.477 85.6818 63.2662 85.471 63.2662 85.211C63.2662 84.951 63.477 84.7403 63.737 84.7403C63.997 84.7403 64.2078 84.951 64.2078 85.211Z" fill="#161F32" fill-opacity="0.44"/>
<path d="M64.2078 8.94481C64.2078 9.20481 63.997 9.41558 63.737 9.41558C63.477 9.41558 63.2662 9.20481 63.2662 8.94481C63.2662 8.6848 63.477 8.47403 63.737 8.47403C63.997 8.47403 64.2078 8.6848 64.2078 8.94481Z" fill="#161F32" fill-opacity="0.44"/>
<path d="M64.2078 51.3149C64.2078 51.5749 63.997 51.7857 63.737 51.7857C63.477 51.7857 63.2662 51.5749 63.2662 51.3149C63.2662 51.0549 63.477 50.8442 63.737 50.8442C63.997 50.8442 64.2078 51.0549 64.2078 51.3149Z" fill="#161F32" fill-opacity="0.44"/>
<path d="M64.2078 93.6851C64.2078 93.9451 63.997 94.1559 63.737 94.1559C63.477 94.1559 63.2662 93.9451 63.2662 93.6851C63.2662 93.4251 63.477 93.2143 63.737 93.2143C63.997 93.2143 64.2078 93.4251 64.2078 93.6851Z" fill="#161F32" fill-opacity="0.44"/>
<path d="M64.2078 127.581C64.2078 127.841 63.997 128.052 63.737 128.052C63.477 128.052 63.2662 127.841 63.2662 127.581C63.2662 127.321 63.477 127.11 63.737 127.11C63.997 127.11 64.2078 127.321 64.2078 127.581Z" fill="#161F32" fill-opacity="0.44"/>
<path d="M64.2078 17.4188C64.2078 17.6788 63.997 17.8896 63.737 17.8896C63.477 17.8896 63.2662 17.6788 63.2662 17.4188C63.2662 17.1588 63.477 16.9481 63.737 16.9481C63.997 16.9481 64.2078 17.1588 64.2078 17.4188Z" fill="#161F32" fill-opacity="0.44"/>
<path d="M64.2078 59.789C64.2078 60.049 63.997 60.2597 63.737 60.2597C63.477 60.2597 63.2662 60.049 63.2662 59.789C63.2662 59.529 63.477 59.3182 63.737 59.3182C63.997 59.3182 64.2078 59.529 64.2078 59.789Z" fill="#161F32" fill-opacity="0.44"/>
<path d="M64.2078 102.159C64.2078 102.419 63.997 102.63 63.737 102.63C63.477 102.63 63.2662 102.419 63.2662 102.159C63.2662 101.899 63.477 101.688 63.737 101.688C63.997 101.688 64.2078 101.899 64.2078 102.159Z" fill="#161F32" fill-opacity="0.44"/>
<path d="M64.2078 136.055C64.2078 136.315 63.997 136.526 63.737 136.526C63.477 136.526 63.2662 136.315 63.2662 136.055C63.2662 135.795 63.477 135.584 63.737 135.584C63.997 135.584 64.2078 135.795 64.2078 136.055Z" fill="#161F32" fill-opacity="0.44"/>
<path d="M64.2078 144.529C64.2078 144.789 63.997 145 63.737 145C63.477 145 63.2662 144.789 63.2662 144.529C63.2662 144.269 63.477 144.058 63.737 144.058C63.997 144.058 64.2078 144.269 64.2078 144.529Z" fill="#161F32" fill-opacity="0.44"/>
<path d="M64.2078 25.8929C64.2078 26.1529 63.997 26.3636 63.737 26.3636C63.477 26.3636 63.2662 26.1529 63.2662 25.8929C63.2662 25.6329 63.477 25.4221 63.737 25.4221C63.997 25.4221 64.2078 25.6329 64.2078 25.8929Z" fill="#161F32" fill-opacity="0.44"/>
<path d="M64.2078 68.263C64.2078 68.523 63.997 68.7338 63.737 68.7338C63.477 68.7338 63.2662 68.523 63.2662 68.263C63.2662 68.003 63.477 67.7922 63.737 67.7922C63.997 67.7922 64.2078 68.003 64.2078 68.263Z" fill="#161F32" fill-opacity="0.44"/>
<path d="M64.2078 110.633C64.2078 110.893 63.997 111.104 63.737 111.104C63.477 111.104 63.2662 110.893 63.2662 110.633C63.2662 110.373 63.477 110.162 63.737 110.162C63.997 110.162 64.2078 110.373 64.2078 110.633Z" fill="#161F32" fill-opacity="0.44"/>
<path d="M64.2078 34.3669C64.2078 34.6269 63.997 34.8377 63.737 34.8377C63.477 34.8377 63.2662 34.6269 63.2662 34.3669C63.2662 34.1069 63.477 33.8961 63.737 33.8961C63.997 33.8961 64.2078 34.1069 64.2078 34.3669Z" fill="#161F32" fill-opacity="0.44"/>
<path d="M64.2078 76.737C64.2078 76.997 63.997 77.2078 63.737 77.2078C63.477 77.2078 63.2662 76.997 63.2662 76.737C63.2662 76.477 63.477 76.2662 63.737 76.2662C63.997 76.2662 64.2078 76.477 64.2078 76.737Z" fill="#161F32" fill-opacity="0.44"/>
<path d="M64.2078 119.107C64.2078 119.367 63.997 119.578 63.737 119.578C63.477 119.578 63.2662 119.367 63.2662 119.107C63.2662 118.847 63.477 118.636 63.737 118.636C63.997 118.636 64.2078 118.847 64.2078 119.107Z" fill="#161F32" fill-opacity="0.44"/>
<path d="M115.052 0.470779C115.052 0.730783 114.841 0.941558 114.581 0.941558C114.321 0.941558 114.11 0.730783 114.11 0.470779C114.11 0.210775 114.321 0 114.581 0C114.841 0 115.052 0.210775 115.052 0.470779Z" fill="#161F32" fill-opacity="0.44"/>
<path d="M115.052 42.8409C115.052 43.1009 114.841 43.3117 114.581 43.3117C114.321 43.3117 114.11 43.1009 114.11 42.8409C114.11 42.5809 114.321 42.3701 114.581 42.3701C114.841 42.3701 115.052 42.5809 115.052 42.8409Z" fill="#161F32" fill-opacity="0.44"/>
<path d="M115.052 85.211C115.052 85.471 114.841 85.6818 114.581 85.6818C114.321 85.6818 114.11 85.471 114.11 85.211C114.11 84.951 114.321 84.7403 114.581 84.7403C114.841 84.7403 115.052 84.951 115.052 85.211Z" fill="#161F32" fill-opacity="0.44"/>
<path d="M115.052 8.94481C115.052 9.20481 114.841 9.41558 114.581 9.41558C114.321 9.41558 114.11 9.20481 114.11 8.94481C114.11 8.6848 114.321 8.47403 114.581 8.47403C114.841 8.47403 115.052 8.6848 115.052 8.94481Z" fill="#161F32" fill-opacity="0.44"/>
<path d="M115.052 51.3149C115.052 51.5749 114.841 51.7857 114.581 51.7857C114.321 51.7857 114.11 51.5749 114.11 51.3149C114.11 51.0549 114.321 50.8442 114.581 50.8442C114.841 50.8442 115.052 51.0549 115.052 51.3149Z" fill="#161F32" fill-opacity="0.44"/>
<path d="M115.052 93.6851C115.052 93.9451 114.841 94.1559 114.581 94.1559C114.321 94.1559 114.11 93.9451 114.11 93.6851C114.11 93.4251 114.321 93.2143 114.581 93.2143C114.841 93.2143 115.052 93.4251 115.052 93.6851Z" fill="#161F32" fill-opacity="0.44"/>
<path d="M115.052 127.581C115.052 127.841 114.841 128.052 114.581 128.052C114.321 128.052 114.11 127.841 114.11 127.581C114.11 127.321 114.321 127.11 114.581 127.11C114.841 127.11 115.052 127.321 115.052 127.581Z" fill="#161F32" fill-opacity="0.44"/>
<path d="M115.052 17.4188C115.052 17.6788 114.841 17.8896 114.581 17.8896C114.321 17.8896 114.11 17.6788 114.11 17.4188C114.11 17.1588 114.321 16.9481 114.581 16.9481C114.841 16.9481 115.052 17.1588 115.052 17.4188Z" fill="#161F32" fill-opacity="0.44"/>
<path d="M115.052 59.789C115.052 60.049 114.841 60.2597 114.581 60.2597C114.321 60.2597 114.11 60.049 114.11 59.789C114.11 59.529 114.321 59.3182 114.581 59.3182C114.841 59.3182 115.052 59.529 115.052 59.789Z" fill="#161F32" fill-opacity="0.44"/>
<path d="M115.052 102.159C115.052 102.419 114.841 102.63 114.581 102.63C114.321 102.63 114.11 102.419 114.11 102.159C114.11 101.899 114.321 101.688 114.581 101.688C114.841 101.688 115.052 101.899 115.052 102.159Z" fill="#161F32" fill-opacity="0.44"/>
<path d="M115.052 136.055C115.052 136.315 114.841 136.526 114.581 136.526C114.321 136.526 114.11 136.315 114.11 136.055C114.11 135.795 114.321 135.584 114.581 135.584C114.841 135.584 115.052 135.795 115.052 136.055Z" fill="#161F32" fill-opacity="0.44"/>
<path d="M115.052 144.529C115.052 144.789 114.841 145 114.581 145C114.321 145 114.11 144.789 114.11 144.529C114.11 144.269 114.321 144.058 114.581 144.058C114.841 144.058 115.052 144.269 115.052 144.529Z" fill="#161F32" fill-opacity="0.44"/>
<path d="M115.052 25.8929C115.052 26.1529 114.841 26.3636 114.581 26.3636C114.321 26.3636 114.11 26.1529 114.11 25.8929C114.11 25.6329 114.321 25.4221 114.581 25.4221C114.841 25.4221 115.052 25.6329 115.052 25.8929Z" fill="#161F32" fill-opacity="0.44"/>
<path d="M115.052 68.263C115.052 68.523 114.841 68.7338 114.581 68.7338C114.321 68.7338 114.11 68.523 114.11 68.263C114.11 68.003 114.321 67.7922 114.581 67.7922C114.841 67.7922 115.052 68.003 115.052 68.263Z" fill="#161F32" fill-opacity="0.44"/>
<path d="M115.052 110.633C115.052 110.893 114.841 111.104 114.581 111.104C114.321 111.104 114.11 110.893 114.11 110.633C114.11 110.373 114.321 110.162 114.581 110.162C114.841 110.162 115.052 110.373 115.052 110.633Z" fill="#161F32" fill-opacity="0.44"/>
<path d="M115.052 34.3669C115.052 34.6269 114.841 34.8377 114.581 34.8377C114.321 34.8377 114.11 34.6269 114.11 34.3669C114.11 34.1069 114.321 33.8961 114.581 33.8961C114.841 33.8961 115.052 34.1069 115.052 34.3669Z" fill="#161F32" fill-opacity="0.44"/>
<path d="M115.052 76.737C115.052 76.997 114.841 77.2078 114.581 77.2078C114.321 77.2078 114.11 76.997 114.11 76.737C114.11 76.477 114.321 76.2662 114.581 76.2662C114.841 76.2662 115.052 76.477 115.052 76.737Z" fill="#161F32" fill-opacity="0.44"/>
<path d="M115.052 119.107C115.052 119.367 114.841 119.578 114.581 119.578C114.321 119.578 114.11 119.367 114.11 119.107C114.11 118.847 114.321 118.636 114.581 118.636C114.841 118.636 115.052 118.847 115.052 119.107Z" fill="#161F32" fill-opacity="0.44"/>
<path d="M-3.58442 0.470779C-3.58442 0.730783 -3.79519 0.941558 -4.05519 0.941558C-4.3152 0.941558 -4.52597 0.730783 -4.52597 0.470779C-4.52597 0.210775 -4.3152 0 -4.05519 0C-3.79519 0 -3.58442 0.210775 -3.58442 0.470779Z" fill="#161F32" fill-opacity="0.44"/>
<path d="M-3.58442 42.8409C-3.58442 43.1009 -3.79519 43.3117 -4.05519 43.3117C-4.3152 43.3117 -4.52597 43.1009 -4.52597 42.8409C-4.52597 42.5809 -4.3152 42.3701 -4.05519 42.3701C-3.79519 42.3701 -3.58442 42.5809 -3.58442 42.8409Z" fill="#161F32" fill-opacity="0.44"/>
<path d="M-3.58442 85.211C-3.58442 85.471 -3.79519 85.6818 -4.05519 85.6818C-4.3152 85.6818 -4.52597 85.471 -4.52597 85.211C-4.52597 84.951 -4.3152 84.7403 -4.05519 84.7403C-3.79519 84.7403 -3.58442 84.951 -3.58442 85.211Z" fill="#161F32" fill-opacity="0.44"/>
<path d="M-3.58442 8.94481C-3.58442 9.20481 -3.79519 9.41558 -4.05519 9.41558C-4.3152 9.41558 -4.52597 9.20481 -4.52597 8.94481C-4.52597 8.6848 -4.3152 8.47403 -4.05519 8.47403C-3.79519 8.47403 -3.58442 8.6848 -3.58442 8.94481Z" fill="#161F32" fill-opacity="0.44"/>
<path d="M-3.58442 51.3149C-3.58442 51.5749 -3.79519 51.7857 -4.05519 51.7857C-4.3152 51.7857 -4.52597 51.5749 -4.52597 51.3149C-4.52597 51.0549 -4.3152 50.8442 -4.05519 50.8442C-3.79519 50.8442 -3.58442 51.0549 -3.58442 51.3149Z" fill="#161F32" fill-opacity="0.44"/>
<path d="M-3.58442 93.6851C-3.58442 93.9451 -3.79519 94.1559 -4.05519 94.1559C-4.3152 94.1559 -4.52597 93.9451 -4.52597 93.6851C-4.52597 93.4251 -4.3152 93.2143 -4.05519 93.2143C-3.79519 93.2143 -3.58442 93.4251 -3.58442 93.6851Z" fill="#161F32" fill-opacity="0.44"/>
<path d="M-3.58442 127.581C-3.58442 127.841 -3.79519 128.052 -4.05519 128.052C-4.3152 128.052 -4.52597 127.841 -4.52597 127.581C-4.52597 127.321 -4.3152 127.11 -4.05519 127.11C-3.79519 127.11 -3.58442 127.321 -3.58442 127.581Z" fill="#161F32" fill-opacity="0.44"/>
<path d="M-3.58442 17.4188C-3.58442 17.6788 -3.79519 17.8896 -4.05519 17.8896C-4.3152 17.8896 -4.52597 17.6788 -4.52597 17.4188C-4.52597 17.1588 -4.3152 16.9481 -4.05519 16.9481C-3.79519 16.9481 -3.58442 17.1588 -3.58442 17.4188Z" fill="#161F32" fill-opacity="0.44"/>
<path d="M-3.58442 59.789C-3.58442 60.049 -3.79519 60.2597 -4.05519 60.2597C-4.3152 60.2597 -4.52597 60.049 -4.52597 59.789C-4.52597 59.529 -4.3152 59.3182 -4.05519 59.3182C-3.79519 59.3182 -3.58442 59.529 -3.58442 59.789Z" fill="#161F32" fill-opacity="0.44"/>
<path d="M-3.58442 102.159C-3.58442 102.419 -3.79519 102.63 -4.05519 102.63C-4.3152 102.63 -4.52597 102.419 -4.52597 102.159C-4.52597 101.899 -4.3152 101.688 -4.05519 101.688C-3.79519 101.688 -3.58442 101.899 -3.58442 102.159Z" fill="#161F32" fill-opacity="0.44"/>
<path d="M-3.58442 136.055C-3.58442 136.315 -3.79519 136.526 -4.05519 136.526C-4.3152 136.526 -4.52597 136.315 -4.52597 136.055C-4.52597 135.795 -4.3152 135.584 -4.05519 135.584C-3.79519 135.584 -3.58442 135.795 -3.58442 136.055Z" fill="#161F32" fill-opacity="0.44"/>
<path d="M-3.58442 144.529C-3.58442 144.789 -3.79519 145 -4.05519 145C-4.3152 145 -4.52597 144.789 -4.52597 144.529C-4.52597 144.269 -4.3152 144.058 -4.05519 144.058C-3.79519 144.058 -3.58442 144.269 -3.58442 144.529Z" fill="#161F32" fill-opacity="0.44"/>
<path d="M-3.58442 25.8929C-3.58442 26.1529 -3.79519 26.3636 -4.05519 26.3636C-4.3152 26.3636 -4.52597 26.1529 -4.52597 25.8929C-4.52597 25.6329 -4.3152 25.4221 -4.05519 25.4221C-3.79519 25.4221 -3.58442 25.6329 -3.58442 25.8929Z" fill="#161F32" fill-opacity="0.44"/>
<path d="M-3.58442 68.263C-3.58442 68.523 -3.79519 68.7338 -4.05519 68.7338C-4.3152 68.7338 -4.52597 68.523 -4.52597 68.263C-4.52597 68.003 -4.3152 67.7922 -4.05519 67.7922C-3.79519 67.7922 -3.58442 68.003 -3.58442 68.263Z" fill="#161F32" fill-opacity="0.44"/>
<path d="M-3.58442 110.633C-3.58442 110.893 -3.79519 111.104 -4.05519 111.104C-4.3152 111.104 -4.52597 110.893 -4.52597 110.633C-4.52597 110.373 -4.3152 110.162 -4.05519 110.162C-3.79519 110.162 -3.58442 110.373 -3.58442 110.633Z" fill="#161F32" fill-opacity="0.44"/>
<path d="M-3.58442 34.3669C-3.58442 34.6269 -3.79519 34.8377 -4.05519 34.8377C-4.3152 34.8377 -4.52597 34.6269 -4.52597 34.3669C-4.52597 34.1069 -4.3152 33.8961 -4.05519 33.8961C-3.79519 33.8961 -3.58442 34.1069 -3.58442 34.3669Z" fill="#161F32" fill-opacity="0.44"/>
<path d="M-3.58442 76.737C-3.58442 76.997 -3.79519 77.2078 -4.05519 77.2078C-4.3152 77.2078 -4.52597 76.997 -4.52597 76.737C-4.52597 76.477 -4.3152 76.2662 -4.05519 76.2662C-3.79519 76.2662 -3.58442 76.477 -3.58442 76.737Z" fill="#161F32" fill-opacity="0.44"/>
<path d="M-3.58442 119.107C-3.58442 119.367 -3.79519 119.578 -4.05519 119.578C-4.3152 119.578 -4.52597 119.367 -4.52597 119.107C-4.52597 118.847 -4.3152 118.636 -4.05519 118.636C-3.79519 118.636 -3.58442 118.847 -3.58442 119.107Z" fill="#161F32" fill-opacity="0.44"/>
<path d="M47.2597 0.470779C47.2597 0.730783 47.049 0.941558 46.789 0.941558C46.529 0.941558 46.3182 0.730783 46.3182 0.470779C46.3182 0.210775 46.529 0 46.789 0C47.049 0 47.2597 0.210775 47.2597 0.470779Z" fill="#161F32" fill-opacity="0.44"/>
<path d="M47.2597 42.8409C47.2597 43.1009 47.049 43.3117 46.789 43.3117C46.529 43.3117 46.3182 43.1009 46.3182 42.8409C46.3182 42.5809 46.529 42.3701 46.789 42.3701C47.049 42.3701 47.2597 42.5809 47.2597 42.8409Z" fill="#161F32" fill-opacity="0.44"/>
<path d="M47.2597 85.211C47.2597 85.471 47.049 85.6818 46.789 85.6818C46.529 85.6818 46.3182 85.471 46.3182 85.211C46.3182 84.951 46.529 84.7403 46.789 84.7403C47.049 84.7403 47.2597 84.951 47.2597 85.211Z" fill="#161F32" fill-opacity="0.44"/>
<path d="M47.2597 8.94481C47.2597 9.20481 47.049 9.41558 46.789 9.41558C46.529 9.41558 46.3182 9.20481 46.3182 8.94481C46.3182 8.6848 46.529 8.47403 46.789 8.47403C47.049 8.47403 47.2597 8.6848 47.2597 8.94481Z" fill="#161F32" fill-opacity="0.44"/>
<path d="M47.2597 51.3149C47.2597 51.5749 47.049 51.7857 46.789 51.7857C46.529 51.7857 46.3182 51.5749 46.3182 51.3149C46.3182 51.0549 46.529 50.8442 46.789 50.8442C47.049 50.8442 47.2597 51.0549 47.2597 51.3149Z" fill="#161F32" fill-opacity="0.44"/>
<path d="M47.2597 93.6851C47.2597 93.9451 47.049 94.1559 46.789 94.1559C46.529 94.1559 46.3182 93.9451 46.3182 93.6851C46.3182 93.4251 46.529 93.2143 46.789 93.2143C47.049 93.2143 47.2597 93.4251 47.2597 93.6851Z" fill="#161F32" fill-opacity="0.44"/>
<path d="M47.2597 127.581C47.2597 127.841 47.049 128.052 46.789 128.052C46.529 128.052 46.3182 127.841 46.3182 127.581C46.3182 127.321 46.529 127.11 46.789 127.11C47.049 127.11 47.2597 127.321 47.2597 127.581Z" fill="#161F32" fill-opacity="0.44"/>
<path d="M47.2597 17.4188C47.2597 17.6788 47.049 17.8896 46.789 17.8896C46.529 17.8896 46.3182 17.6788 46.3182 17.4188C46.3182 17.1588 46.529 16.9481 46.789 16.9481C47.049 16.9481 47.2597 17.1588 47.2597 17.4188Z" fill="#161F32" fill-opacity="0.44"/>
<path d="M47.2597 59.789C47.2597 60.049 47.049 60.2597 46.789 60.2597C46.529 60.2597 46.3182 60.049 46.3182 59.789C46.3182 59.529 46.529 59.3182 46.789 59.3182C47.049 59.3182 47.2597 59.529 47.2597 59.789Z" fill="#161F32" fill-opacity="0.44"/>
<path d="M47.2597 102.159C47.2597 102.419 47.049 102.63 46.789 102.63C46.529 102.63 46.3182 102.419 46.3182 102.159C46.3182 101.899 46.529 101.688 46.789 101.688C47.049 101.688 47.2597 101.899 47.2597 102.159Z" fill="#161F32" fill-opacity="0.44"/>
<path d="M47.2597 136.055C47.2597 136.315 47.049 136.526 46.789 136.526C46.529 136.526 46.3182 136.315 46.3182 136.055C46.3182 135.795 46.529 135.584 46.789 135.584C47.049 135.584 47.2597 135.795 47.2597 136.055Z" fill="#161F32" fill-opacity="0.44"/>
<path d="M47.2597 144.529C47.2597 144.789 47.049 145 46.789 145C46.529 145 46.3182 144.789 46.3182 144.529C46.3182 144.269 46.529 144.058 46.789 144.058C47.049 144.058 47.2597 144.269 47.2597 144.529Z" fill="#161F32" fill-opacity="0.44"/>
<path d="M47.2597 25.8929C47.2597 26.1529 47.049 26.3636 46.789 26.3636C46.529 26.3636 46.3182 26.1529 46.3182 25.8929C46.3182 25.6329 46.529 25.4221 46.789 25.4221C47.049 25.4221 47.2597 25.6329 47.2597 25.8929Z" fill="#161F32" fill-opacity="0.44"/>
<path d="M47.2597 68.263C47.2597 68.523 47.049 68.7338 46.789 68.7338C46.529 68.7338 46.3182 68.523 46.3182 68.263C46.3182 68.003 46.529 67.7922 46.789 67.7922C47.049 67.7922 47.2597 68.003 47.2597 68.263Z" fill="#161F32" fill-opacity="0.44"/>
<path d="M47.2597 110.633C47.2597 110.893 47.049 111.104 46.789 111.104C46.529 111.104 46.3182 110.893 46.3182 110.633C46.3182 110.373 46.529 110.162 46.789 110.162C47.049 110.162 47.2597 110.373 47.2597 110.633Z" fill="#161F32" fill-opacity="0.44"/>
<path d="M47.2597 34.3669C47.2597 34.6269 47.049 34.8377 46.789 34.8377C46.529 34.8377 46.3182 34.6269 46.3182 34.3669C46.3182 34.1069 46.529 33.8961 46.789 33.8961C47.049 33.8961 47.2597 34.1069 47.2597 34.3669Z" fill="#161F32" fill-opacity="0.44"/>
<path d="M47.2597 76.737C47.2597 76.997 47.049 77.2078 46.789 77.2078C46.529 77.2078 46.3182 76.997 46.3182 76.737C46.3182 76.477 46.529 76.2662 46.789 76.2662C47.049 76.2662 47.2597 76.477 47.2597 76.737Z" fill="#161F32" fill-opacity="0.44"/>
<path d="M47.2597 119.107C47.2597 119.367 47.049 119.578 46.789 119.578C46.529 119.578 46.3182 119.367 46.3182 119.107C46.3182 118.847 46.529 118.636 46.789 118.636C47.049 118.636 47.2597 118.847 47.2597 119.107Z" fill="#161F32" fill-opacity="0.44"/>
<path d="M98.1039 0.470779C98.1039 0.730783 97.8931 0.941558 97.6331 0.941558C97.3731 0.941558 97.1623 0.730783 97.1623 0.470779C97.1623 0.210775 97.3731 0 97.6331 0C97.8931 0 98.1039 0.210775 98.1039 0.470779Z" fill="#161F32" fill-opacity="0.44"/>
<path d="M98.1039 42.8409C98.1039 43.1009 97.8931 43.3117 97.6331 43.3117C97.3731 43.3117 97.1623 43.1009 97.1623 42.8409C97.1623 42.5809 97.3731 42.3701 97.6331 42.3701C97.8931 42.3701 98.1039 42.5809 98.1039 42.8409Z" fill="#161F32" fill-opacity="0.44"/>
<path d="M98.1039 85.211C98.1039 85.471 97.8931 85.6818 97.6331 85.6818C97.3731 85.6818 97.1623 85.471 97.1623 85.211C97.1623 84.951 97.3731 84.7403 97.6331 84.7403C97.8931 84.7403 98.1039 84.951 98.1039 85.211Z" fill="#161F32" fill-opacity="0.44"/>
<path d="M98.1039 8.94481C98.1039 9.20481 97.8931 9.41558 97.6331 9.41558C97.3731 9.41558 97.1623 9.20481 97.1623 8.94481C97.1623 8.6848 97.3731 8.47403 97.6331 8.47403C97.8931 8.47403 98.1039 8.6848 98.1039 8.94481Z" fill="#161F32" fill-opacity="0.44"/>
<path d="M98.1039 51.3149C98.1039 51.5749 97.8931 51.7857 97.6331 51.7857C97.3731 51.7857 97.1623 51.5749 97.1623 51.3149C97.1623 51.0549 97.3731 50.8442 97.6331 50.8442C97.8931 50.8442 98.1039 51.0549 98.1039 51.3149Z" fill="#161F32" fill-opacity="0.44"/>
<path d="M98.1039 93.6851C98.1039 93.9451 97.8931 94.1559 97.6331 94.1559C97.3731 94.1559 97.1623 93.9451 97.1623 93.6851C97.1623 93.4251 97.3731 93.2143 97.6331 93.2143C97.8931 93.2143 98.1039 93.4251 98.1039 93.6851Z" fill="#161F32" fill-opacity="0.44"/>
<path d="M98.1039 127.581C98.1039 127.841 97.8931 128.052 97.6331 128.052C97.3731 128.052 97.1623 127.841 97.1623 127.581C97.1623 127.321 97.3731 127.11 97.6331 127.11C97.8931 127.11 98.1039 127.321 98.1039 127.581Z" fill="#161F32" fill-opacity="0.44"/>
<path d="M98.1039 17.4188C98.1039 17.6788 97.8931 17.8896 97.6331 17.8896C97.3731 17.8896 97.1623 17.6788 97.1623 17.4188C97.1623 17.1588 97.3731 16.9481 97.6331 16.9481C97.8931 16.9481 98.1039 17.1588 98.1039 17.4188Z" fill="#161F32" fill-opacity="0.44"/>
<path d="M98.1039 59.789C98.1039 60.049 97.8931 60.2597 97.6331 60.2597C97.3731 60.2597 97.1623 60.049 97.1623 59.789C97.1623 59.529 97.3731 59.3182 97.6331 59.3182C97.8931 59.3182 98.1039 59.529 98.1039 59.789Z" fill="#161F32" fill-opacity="0.44"/>
<path d="M98.1039 102.159C98.1039 102.419 97.8931 102.63 97.6331 102.63C97.3731 102.63 97.1623 102.419 97.1623 102.159C97.1623 101.899 97.3731 101.688 97.6331 101.688C97.8931 101.688 98.1039 101.899 98.1039 102.159Z" fill="#161F32" fill-opacity="0.44"/>
<path d="M98.1039 136.055C98.1039 136.315 97.8931 136.526 97.6331 136.526C97.3731 136.526 97.1623 136.315 97.1623 136.055C97.1623 135.795 97.3731 135.584 97.6331 135.584C97.8931 135.584 98.1039 135.795 98.1039 136.055Z" fill="#161F32" fill-opacity="0.44"/>
<path d="M98.1039 144.529C98.1039 144.789 97.8931 145 97.6331 145C97.3731 145 97.1623 144.789 97.1623 144.529C97.1623 144.269 97.3731 144.058 97.6331 144.058C97.8931 144.058 98.1039 144.269 98.1039 144.529Z" fill="#161F32" fill-opacity="0.44"/>
<path d="M98.1039 25.8929C98.1039 26.1529 97.8931 26.3636 97.6331 26.3636C97.3731 26.3636 97.1623 26.1529 97.1623 25.8929C97.1623 25.6329 97.3731 25.4221 97.6331 25.4221C97.8931 25.4221 98.1039 25.6329 98.1039 25.8929Z" fill="#161F32" fill-opacity="0.44"/>
<path d="M98.1039 68.263C98.1039 68.523 97.8931 68.7338 97.6331 68.7338C97.3731 68.7338 97.1623 68.523 97.1623 68.263C97.1623 68.003 97.3731 67.7922 97.6331 67.7922C97.8931 67.7922 98.1039 68.003 98.1039 68.263Z" fill="#161F32" fill-opacity="0.44"/>
<path d="M98.1039 110.633C98.1039 110.893 97.8931 111.104 97.6331 111.104C97.3731 111.104 97.1623 110.893 97.1623 110.633C97.1623 110.373 97.3731 110.162 97.6331 110.162C97.8931 110.162 98.1039 110.373 98.1039 110.633Z" fill="#161F32" fill-opacity="0.44"/>
<path d="M98.1039 34.3669C98.1039 34.6269 97.8931 34.8377 97.6331 34.8377C97.3731 34.8377 97.1623 34.6269 97.1623 34.3669C97.1623 34.1069 97.3731 33.8961 97.6331 33.8961C97.8931 33.8961 98.1039 34.1069 98.1039 34.3669Z" fill="#161F32" fill-opacity="0.44"/>
<path d="M98.1039 76.737C98.1039 76.997 97.8931 77.2078 97.6331 77.2078C97.3731 77.2078 97.1623 76.997 97.1623 76.737C97.1623 76.477 97.3731 76.2662 97.6331 76.2662C97.8931 76.2662 98.1039 76.477 98.1039 76.737Z" fill="#161F32" fill-opacity="0.44"/>
<path d="M98.1039 119.107C98.1039 119.367 97.8931 119.578 97.6331 119.578C97.3731 119.578 97.1623 119.367 97.1623 119.107C97.1623 118.847 97.3731 118.636 97.6331 118.636C97.8931 118.636 98.1039 118.847 98.1039 119.107Z" fill="#161F32" fill-opacity="0.44"/>
<path d="M21.8377 0.470779C21.8377 0.730783 21.6269 0.941558 21.3669 0.941558C21.1069 0.941558 20.8961 0.730783 20.8961 0.470779C20.8961 0.210775 21.1069 0 21.3669 0C21.6269 0 21.8377 0.210775 21.8377 0.470779Z" fill="#161F32" fill-opacity="0.44"/>
<path d="M21.8377 42.8409C21.8377 43.1009 21.6269 43.3117 21.3669 43.3117C21.1069 43.3117 20.8961 43.1009 20.8961 42.8409C20.8961 42.5809 21.1069 42.3701 21.3669 42.3701C21.6269 42.3701 21.8377 42.5809 21.8377 42.8409Z" fill="#161F32" fill-opacity="0.44"/>
<path d="M21.8377 85.211C21.8377 85.471 21.6269 85.6818 21.3669 85.6818C21.1069 85.6818 20.8961 85.471 20.8961 85.211C20.8961 84.951 21.1069 84.7403 21.3669 84.7403C21.6269 84.7403 21.8377 84.951 21.8377 85.211Z" fill="#161F32" fill-opacity="0.44"/>
<path d="M21.8377 8.94481C21.8377 9.20481 21.6269 9.41558 21.3669 9.41558C21.1069 9.41558 20.8961 9.20481 20.8961 8.94481C20.8961 8.6848 21.1069 8.47403 21.3669 8.47403C21.6269 8.47403 21.8377 8.6848 21.8377 8.94481Z" fill="#161F32" fill-opacity="0.44"/>
<path d="M21.8377 51.3149C21.8377 51.5749 21.6269 51.7857 21.3669 51.7857C21.1069 51.7857 20.8961 51.5749 20.8961 51.3149C20.8961 51.0549 21.1069 50.8442 21.3669 50.8442C21.6269 50.8442 21.8377 51.0549 21.8377 51.3149Z" fill="#161F32" fill-opacity="0.44"/>
<path d="M21.8377 93.6851C21.8377 93.9451 21.6269 94.1559 21.3669 94.1559C21.1069 94.1559 20.8961 93.9451 20.8961 93.6851C20.8961 93.4251 21.1069 93.2143 21.3669 93.2143C21.6269 93.2143 21.8377 93.4251 21.8377 93.6851Z" fill="#161F32" fill-opacity="0.44"/>
<path d="M21.8377 127.581C21.8377 127.841 21.6269 128.052 21.3669 128.052C21.1069 128.052 20.8961 127.841 20.8961 127.581C20.8961 127.321 21.1069 127.11 21.3669 127.11C21.6269 127.11 21.8377 127.321 21.8377 127.581Z" fill="#161F32" fill-opacity="0.44"/>
<path d="M21.8377 17.4188C21.8377 17.6788 21.6269 17.8896 21.3669 17.8896C21.1069 17.8896 20.8961 17.6788 20.8961 17.4188C20.8961 17.1588 21.1069 16.9481 21.3669 16.9481C21.6269 16.9481 21.8377 17.1588 21.8377 17.4188Z" fill="#161F32" fill-opacity="0.44"/>
<path d="M21.8377 59.789C21.8377 60.049 21.6269 60.2597 21.3669 60.2597C21.1069 60.2597 20.8961 60.049 20.8961 59.789C20.8961 59.529 21.1069 59.3182 21.3669 59.3182C21.6269 59.3182 21.8377 59.529 21.8377 59.789Z" fill="#161F32" fill-opacity="0.44"/>
<path d="M21.8377 102.159C21.8377 102.419 21.6269 102.63 21.3669 102.63C21.1069 102.63 20.8961 102.419 20.8961 102.159C20.8961 101.899 21.1069 101.688 21.3669 101.688C21.6269 101.688 21.8377 101.899 21.8377 102.159Z" fill="#161F32" fill-opacity="0.44"/>
<path d="M21.8377 136.055C21.8377 136.315 21.6269 136.526 21.3669 136.526C21.1069 136.526 20.8961 136.315 20.8961 136.055C20.8961 135.795 21.1069 135.584 21.3669 135.584C21.6269 135.584 21.8377 135.795 21.8377 136.055Z" fill="#161F32" fill-opacity="0.44"/>
<path d="M21.8377 144.529C21.8377 144.789 21.6269 145 21.3669 145C21.1069 145 20.8961 144.789 20.8961 144.529C20.8961 144.269 21.1069 144.058 21.3669 144.058C21.6269 144.058 21.8377 144.269 21.8377 144.529Z" fill="#161F32" fill-opacity="0.44"/>
<path d="M21.8377 25.8929C21.8377 26.1529 21.6269 26.3636 21.3669 26.3636C21.1069 26.3636 20.8961 26.1529 20.8961 25.8929C20.8961 25.6329 21.1069 25.4221 21.3669 25.4221C21.6269 25.4221 21.8377 25.6329 21.8377 25.8929Z" fill="#161F32" fill-opacity="0.44"/>
<path d="M21.8377 68.263C21.8377 68.523 21.6269 68.7338 21.3669 68.7338C21.1069 68.7338 20.8961 68.523 20.8961 68.263C20.8961 68.003 21.1069 67.7922 21.3669 67.7922C21.6269 67.7922 21.8377 68.003 21.8377 68.263Z" fill="#161F32" fill-opacity="0.44"/>
<path d="M21.8377 110.633C21.8377 110.893 21.6269 111.104 21.3669 111.104C21.1069 111.104 20.8961 110.893 20.8961 110.633C20.8961 110.373 21.1069 110.162 21.3669 110.162C21.6269 110.162 21.8377 110.373 21.8377 110.633Z" fill="#161F32" fill-opacity="0.44"/>
<path d="M21.8377 34.3669C21.8377 34.6269 21.6269 34.8377 21.3669 34.8377C21.1069 34.8377 20.8961 34.6269 20.8961 34.3669C20.8961 34.1069 21.1069 33.8961 21.3669 33.8961C21.6269 33.8961 21.8377 34.1069 21.8377 34.3669Z" fill="#161F32" fill-opacity="0.44"/>
<path d="M21.8377 76.737C21.8377 76.997 21.6269 77.2078 21.3669 77.2078C21.1069 77.2078 20.8961 76.997 20.8961 76.737C20.8961 76.477 21.1069 76.2662 21.3669 76.2662C21.6269 76.2662 21.8377 76.477 21.8377 76.737Z" fill="#161F32" fill-opacity="0.44"/>
<path d="M21.8377 119.107C21.8377 119.367 21.6269 119.578 21.3669 119.578C21.1069 119.578 20.8961 119.367 20.8961 119.107C20.8961 118.847 21.1069 118.636 21.3669 118.636C21.6269 118.636 21.8377 118.847 21.8377 119.107Z" fill="#161F32" fill-opacity="0.44"/>
<path d="M72.6818 0.470779C72.6818 0.730783 72.471 0.941558 72.211 0.941558C71.951 0.941558 71.7403 0.730783 71.7403 0.470779C71.7403 0.210775 71.951 0 72.211 0C72.471 0 72.6818 0.210775 72.6818 0.470779Z" fill="#161F32" fill-opacity="0.44"/>
<path d="M72.6818 42.8409C72.6818 43.1009 72.471 43.3117 72.211 43.3117C71.951 43.3117 71.7403 43.1009 71.7403 42.8409C71.7403 42.5809 71.951 42.3701 72.211 42.3701C72.471 42.3701 72.6818 42.5809 72.6818 42.8409Z" fill="#161F32" fill-opacity="0.44"/>
<path d="M72.6818 85.211C72.6818 85.471 72.471 85.6818 72.211 85.6818C71.951 85.6818 71.7403 85.471 71.7403 85.211C71.7403 84.951 71.951 84.7403 72.211 84.7403C72.471 84.7403 72.6818 84.951 72.6818 85.211Z" fill="#161F32" fill-opacity="0.44"/>
<path d="M72.6818 8.94481C72.6818 9.20481 72.471 9.41558 72.211 9.41558C71.951 9.41558 71.7403 9.20481 71.7403 8.94481C71.7403 8.6848 71.951 8.47403 72.211 8.47403C72.471 8.47403 72.6818 8.6848 72.6818 8.94481Z" fill="#161F32" fill-opacity="0.44"/>
<path d="M72.6818 51.3149C72.6818 51.5749 72.471 51.7857 72.211 51.7857C71.951 51.7857 71.7403 51.5749 71.7403 51.3149C71.7403 51.0549 71.951 50.8442 72.211 50.8442C72.471 50.8442 72.6818 51.0549 72.6818 51.3149Z" fill="#161F32" fill-opacity="0.44"/>
<path d="M72.6818 93.6851C72.6818 93.9451 72.471 94.1559 72.211 94.1559C71.951 94.1559 71.7403 93.9451 71.7403 93.6851C71.7403 93.4251 71.951 93.2143 72.211 93.2143C72.471 93.2143 72.6818 93.4251 72.6818 93.6851Z" fill="#161F32" fill-opacity="0.44"/>
<path d="M72.6818 127.581C72.6818 127.841 72.471 128.052 72.211 128.052C71.951 128.052 71.7403 127.841 71.7403 127.581C71.7403 127.321 71.951 127.11 72.211 127.11C72.471 127.11 72.6818 127.321 72.6818 127.581Z" fill="#161F32" fill-opacity="0.44"/>
<path d="M72.6818 17.4188C72.6818 17.6788 72.471 17.8896 72.211 17.8896C71.951 17.8896 71.7403 17.6788 71.7403 17.4188C71.7403 17.1588 71.951 16.9481 72.211 16.9481C72.471 16.9481 72.6818 17.1588 72.6818 17.4188Z" fill="#161F32" fill-opacity="0.44"/>
<path d="M72.6818 59.789C72.6818 60.049 72.471 60.2597 72.211 60.2597C71.951 60.2597 71.7403 60.049 71.7403 59.789C71.7403 59.529 71.951 59.3182 72.211 59.3182C72.471 59.3182 72.6818 59.529 72.6818 59.789Z" fill="#161F32" fill-opacity="0.44"/>
<path d="M72.6818 102.159C72.6818 102.419 72.471 102.63 72.211 102.63C71.951 102.63 71.7403 102.419 71.7403 102.159C71.7403 101.899 71.951 101.688 72.211 101.688C72.471 101.688 72.6818 101.899 72.6818 102.159Z" fill="#161F32" fill-opacity="0.44"/>
<path d="M72.6818 136.055C72.6818 136.315 72.471 136.526 72.211 136.526C71.951 136.526 71.7403 136.315 71.7403 136.055C71.7403 135.795 71.951 135.584 72.211 135.584C72.471 135.584 72.6818 135.795 72.6818 136.055Z" fill="#161F32" fill-opacity="0.44"/>
<path d="M72.6818 144.529C72.6818 144.789 72.471 145 72.211 145C71.951 145 71.7403 144.789 71.7403 144.529C71.7403 144.269 71.951 144.058 72.211 144.058C72.471 144.058 72.6818 144.269 72.6818 144.529Z" fill="#161F32" fill-opacity="0.44"/>
<path d="M72.6818 25.8929C72.6818 26.1529 72.471 26.3636 72.211 26.3636C71.951 26.3636 71.7403 26.1529 71.7403 25.8929C71.7403 25.6329 71.951 25.4221 72.211 25.4221C72.471 25.4221 72.6818 25.6329 72.6818 25.8929Z" fill="#161F32" fill-opacity="0.44"/>
<path d="M72.6818 68.263C72.6818 68.523 72.471 68.7338 72.211 68.7338C71.951 68.7338 71.7403 68.523 71.7403 68.263C71.7403 68.003 71.951 67.7922 72.211 67.7922C72.471 67.7922 72.6818 68.003 72.6818 68.263Z" fill="#161F32" fill-opacity="0.44"/>
<path d="M72.6818 110.633C72.6818 110.893 72.471 111.104 72.211 111.104C71.951 111.104 71.7403 110.893 71.7403 110.633C71.7403 110.373 71.951 110.162 72.211 110.162C72.471 110.162 72.6818 110.373 72.6818 110.633Z" fill="#161F32" fill-opacity="0.44"/>
<path d="M72.6818 34.3669C72.6818 34.6269 72.471 34.8377 72.211 34.8377C71.951 34.8377 71.7403 34.6269 71.7403 34.3669C71.7403 34.1069 71.951 33.8961 72.211 33.8961C72.471 33.8961 72.6818 34.1069 72.6818 34.3669Z" fill="#161F32" fill-opacity="0.44"/>
<path d="M72.6818 76.737C72.6818 76.997 72.471 77.2078 72.211 77.2078C71.951 77.2078 71.7403 76.997 71.7403 76.737C71.7403 76.477 71.951 76.2662 72.211 76.2662C72.471 76.2662 72.6818 76.477 72.6818 76.737Z" fill="#161F32" fill-opacity="0.44"/>
<path d="M72.6818 119.107C72.6818 119.367 72.471 119.578 72.211 119.578C71.951 119.578 71.7403 119.367 71.7403 119.107C71.7403 118.847 71.951 118.636 72.211 118.636C72.471 118.636 72.6818 118.847 72.6818 119.107Z" fill="#161F32" fill-opacity="0.44"/>
<path d="M123.526 0.470779C123.526 0.730783 123.315 0.941558 123.055 0.941558C122.795 0.941558 122.584 0.730783 122.584 0.470779C122.584 0.210775 122.795 0 123.055 0C123.315 0 123.526 0.210775 123.526 0.470779Z" fill="#161F32" fill-opacity="0.44"/>
<path d="M123.526 42.8409C123.526 43.1009 123.315 43.3117 123.055 43.3117C122.795 43.3117 122.584 43.1009 122.584 42.8409C122.584 42.5809 122.795 42.3701 123.055 42.3701C123.315 42.3701 123.526 42.5809 123.526 42.8409Z" fill="#161F32" fill-opacity="0.44"/>
<path d="M123.526 85.211C123.526 85.471 123.315 85.6818 123.055 85.6818C122.795 85.6818 122.584 85.471 122.584 85.211C122.584 84.951 122.795 84.7403 123.055 84.7403C123.315 84.7403 123.526 84.951 123.526 85.211Z" fill="#161F32" fill-opacity="0.44"/>
<path d="M123.526 8.94481C123.526 9.20481 123.315 9.41558 123.055 9.41558C122.795 9.41558 122.584 9.20481 122.584 8.94481C122.584 8.6848 122.795 8.47403 123.055 8.47403C123.315 8.47403 123.526 8.6848 123.526 8.94481Z" fill="#161F32" fill-opacity="0.44"/>
<path d="M123.526 51.3149C123.526 51.5749 123.315 51.7857 123.055 51.7857C122.795 51.7857 122.584 51.5749 122.584 51.3149C122.584 51.0549 122.795 50.8442 123.055 50.8442C123.315 50.8442 123.526 51.0549 123.526 51.3149Z" fill="#161F32" fill-opacity="0.44"/>
<path d="M123.526 93.6851C123.526 93.9451 123.315 94.1559 123.055 94.1559C122.795 94.1559 122.584 93.9451 122.584 93.6851C122.584 93.4251 122.795 93.2143 123.055 93.2143C123.315 93.2143 123.526 93.4251 123.526 93.6851Z" fill="#161F32" fill-opacity="0.44"/>
<path d="M123.526 127.581C123.526 127.841 123.315 128.052 123.055 128.052C122.795 128.052 122.584 127.841 122.584 127.581C122.584 127.321 122.795 127.11 123.055 127.11C123.315 127.11 123.526 127.321 123.526 127.581Z" fill="#161F32" fill-opacity="0.44"/>
<path d="M123.526 17.4188C123.526 17.6788 123.315 17.8896 123.055 17.8896C122.795 17.8896 122.584 17.6788 122.584 17.4188C122.584 17.1588 122.795 16.9481 123.055 16.9481C123.315 16.9481 123.526 17.1588 123.526 17.4188Z" fill="#161F32" fill-opacity="0.44"/>
<path d="M123.526 59.789C123.526 60.049 123.315 60.2597 123.055 60.2597C122.795 60.2597 122.584 60.049 122.584 59.789C122.584 59.529 122.795 59.3182 123.055 59.3182C123.315 59.3182 123.526 59.529 123.526 59.789Z" fill="#161F32" fill-opacity="0.44"/>
<path d="M123.526 102.159C123.526 102.419 123.315 102.63 123.055 102.63C122.795 102.63 122.584 102.419 122.584 102.159C122.584 101.899 122.795 101.688 123.055 101.688C123.315 101.688 123.526 101.899 123.526 102.159Z" fill="#161F32" fill-opacity="0.44"/>
<path d="M123.526 136.055C123.526 136.315 123.315 136.526 123.055 136.526C122.795 136.526 122.584 136.315 122.584 136.055C122.584 135.795 122.795 135.584 123.055 135.584C123.315 135.584 123.526 135.795 123.526 136.055Z" fill="#161F32" fill-opacity="0.44"/>
<path d="M123.526 144.529C123.526 144.789 123.315 145 123.055 145C122.795 145 122.584 144.789 122.584 144.529C122.584 144.269 122.795 144.058 123.055 144.058C123.315 144.058 123.526 144.269 123.526 144.529Z" fill="#161F32" fill-opacity="0.44"/>
<path d="M123.526 25.8929C123.526 26.1529 123.315 26.3636 123.055 26.3636C122.795 26.3636 122.584 26.1529 122.584 25.8929C122.584 25.6329 122.795 25.4221 123.055 25.4221C123.315 25.4221 123.526 25.6329 123.526 25.8929Z" fill="#161F32" fill-opacity="0.44"/>
<path d="M123.526 68.263C123.526 68.523 123.315 68.7338 123.055 68.7338C122.795 68.7338 122.584 68.523 122.584 68.263C122.584 68.003 122.795 67.7922 123.055 67.7922C123.315 67.7922 123.526 68.003 123.526 68.263Z" fill="#161F32" fill-opacity="0.44"/>
<path d="M123.526 110.633C123.526 110.893 123.315 111.104 123.055 111.104C122.795 111.104 122.584 110.893 122.584 110.633C122.584 110.373 122.795 110.162 123.055 110.162C123.315 110.162 123.526 110.373 123.526 110.633Z" fill="#161F32" fill-opacity="0.44"/>
<path d="M123.526 34.3669C123.526 34.6269 123.315 34.8377 123.055 34.8377C122.795 34.8377 122.584 34.6269 122.584 34.3669C122.584 34.1069 122.795 33.8961 123.055 33.8961C123.315 33.8961 123.526 34.1069 123.526 34.3669Z" fill="#161F32" fill-opacity="0.44"/>
<path d="M123.526 76.737C123.526 76.997 123.315 77.2078 123.055 77.2078C122.795 77.2078 122.584 76.997 122.584 76.737C122.584 76.477 122.795 76.2662 123.055 76.2662C123.315 76.2662 123.526 76.477 123.526 76.737Z" fill="#161F32" fill-opacity="0.44"/>
<path d="M123.526 119.107C123.526 119.367 123.315 119.578 123.055 119.578C122.795 119.578 122.584 119.367 122.584 119.107C122.584 118.847 122.795 118.636 123.055 118.636C123.315 118.636 123.526 118.847 123.526 119.107Z" fill="#161F32" fill-opacity="0.44"/>
<path d="M4.88961 0.470779C4.88961 0.730783 4.67884 0.941558 4.41883 0.941558C4.15883 0.941558 3.94805 0.730783 3.94805 0.470779C3.94805 0.210775 4.15883 0 4.41883 0C4.67884 0 4.88961 0.210775 4.88961 0.470779Z" fill="#161F32" fill-opacity="0.44"/>
<path d="M4.88961 42.8409C4.88961 43.1009 4.67884 43.3117 4.41883 43.3117C4.15883 43.3117 3.94805 43.1009 3.94805 42.8409C3.94805 42.5809 4.15883 42.3701 4.41883 42.3701C4.67884 42.3701 4.88961 42.5809 4.88961 42.8409Z" fill="#161F32" fill-opacity="0.44"/>
<path d="M4.88961 85.211C4.88961 85.471 4.67884 85.6818 4.41883 85.6818C4.15883 85.6818 3.94805 85.471 3.94805 85.211C3.94805 84.951 4.15883 84.7403 4.41883 84.7403C4.67884 84.7403 4.88961 84.951 4.88961 85.211Z" fill="#161F32" fill-opacity="0.44"/>
<path d="M4.88961 8.94481C4.88961 9.20481 4.67884 9.41558 4.41883 9.41558C4.15883 9.41558 3.94805 9.20481 3.94805 8.94481C3.94805 8.6848 4.15883 8.47403 4.41883 8.47403C4.67884 8.47403 4.88961 8.6848 4.88961 8.94481Z" fill="#161F32" fill-opacity="0.44"/>
<path d="M4.88961 51.3149C4.88961 51.5749 4.67884 51.7857 4.41883 51.7857C4.15883 51.7857 3.94805 51.5749 3.94805 51.3149C3.94805 51.0549 4.15883 50.8442 4.41883 50.8442C4.67884 50.8442 4.88961 51.0549 4.88961 51.3149Z" fill="#161F32" fill-opacity="0.44"/>
<path d="M4.88961 93.6851C4.88961 93.9451 4.67884 94.1559 4.41883 94.1559C4.15883 94.1559 3.94805 93.9451 3.94805 93.6851C3.94805 93.4251 4.15883 93.2143 4.41883 93.2143C4.67884 93.2143 4.88961 93.4251 4.88961 93.6851Z" fill="#161F32" fill-opacity="0.44"/>
<path d="M4.88961 127.581C4.88961 127.841 4.67884 128.052 4.41883 128.052C4.15883 128.052 3.94805 127.841 3.94805 127.581C3.94805 127.321 4.15883 127.11 4.41883 127.11C4.67884 127.11 4.88961 127.321 4.88961 127.581Z" fill="#161F32" fill-opacity="0.44"/>
<path d="M4.88961 17.4188C4.88961 17.6788 4.67884 17.8896 4.41883 17.8896C4.15883 17.8896 3.94805 17.6788 3.94805 17.4188C3.94805 17.1588 4.15883 16.9481 4.41883 16.9481C4.67884 16.9481 4.88961 17.1588 4.88961 17.4188Z" fill="#161F32" fill-opacity="0.44"/>
<path d="M4.88961 59.789C4.88961 60.049 4.67884 60.2597 4.41883 60.2597C4.15883 60.2597 3.94805 60.049 3.94805 59.789C3.94805 59.529 4.15883 59.3182 4.41883 59.3182C4.67884 59.3182 4.88961 59.529 4.88961 59.789Z" fill="#161F32" fill-opacity="0.44"/>
<path d="M4.88961 102.159C4.88961 102.419 4.67884 102.63 4.41883 102.63C4.15883 102.63 3.94805 102.419 3.94805 102.159C3.94805 101.899 4.15883 101.688 4.41883 101.688C4.67884 101.688 4.88961 101.899 4.88961 102.159Z" fill="#161F32" fill-opacity="0.44"/>
<path d="M4.88961 136.055C4.88961 136.315 4.67884 136.526 4.41883 136.526C4.15883 136.526 3.94805 136.315 3.94805 136.055C3.94805 135.795 4.15883 135.584 4.41883 135.584C4.67884 135.584 4.88961 135.795 4.88961 136.055Z" fill="#161F32" fill-opacity="0.44"/>
<path d="M4.88961 144.529C4.88961 144.789 4.67884 145 4.41883 145C4.15883 145 3.94805 144.789 3.94805 144.529C3.94805 144.269 4.15883 144.058 4.41883 144.058C4.67884 144.058 4.88961 144.269 4.88961 144.529Z" fill="#161F32" fill-opacity="0.44"/>
<path d="M4.88961 25.8929C4.88961 26.1529 4.67884 26.3636 4.41883 26.3636C4.15883 26.3636 3.94805 26.1529 3.94805 25.8929C3.94805 25.6329 4.15883 25.4221 4.41883 25.4221C4.67884 25.4221 4.88961 25.6329 4.88961 25.8929Z" fill="#161F32" fill-opacity="0.44"/>
<path d="M4.88961 68.263C4.88961 68.523 4.67884 68.7338 4.41883 68.7338C4.15883 68.7338 3.94805 68.523 3.94805 68.263C3.94805 68.003 4.15883 67.7922 4.41883 67.7922C4.67884 67.7922 4.88961 68.003 4.88961 68.263Z" fill="#161F32" fill-opacity="0.44"/>
<path d="M4.88961 110.633C4.88961 110.893 4.67884 111.104 4.41883 111.104C4.15883 111.104 3.94805 110.893 3.94805 110.633C3.94805 110.373 4.15883 110.162 4.41883 110.162C4.67884 110.162 4.88961 110.373 4.88961 110.633Z" fill="#161F32" fill-opacity="0.44"/>
<path d="M4.88961 34.3669C4.88961 34.6269 4.67884 34.8377 4.41883 34.8377C4.15883 34.8377 3.94805 34.6269 3.94805 34.3669C3.94805 34.1069 4.15883 33.8961 4.41883 33.8961C4.67884 33.8961 4.88961 34.1069 4.88961 34.3669Z" fill="#161F32" fill-opacity="0.44"/>
<path d="M4.88961 76.737C4.88961 76.997 4.67884 77.2078 4.41883 77.2078C4.15883 77.2078 3.94805 76.997 3.94805 76.737C3.94805 76.477 4.15883 76.2662 4.41883 76.2662C4.67884 76.2662 4.88961 76.477 4.88961 76.737Z" fill="#161F32" fill-opacity="0.44"/>
<path d="M4.88961 119.107C4.88961 119.367 4.67884 119.578 4.41883 119.578C4.15883 119.578 3.94805 119.367 3.94805 119.107C3.94805 118.847 4.15883 118.636 4.41883 118.636C4.67884 118.636 4.88961 118.847 4.88961 119.107Z" fill="#161F32" fill-opacity="0.44"/>
<path d="M55.7338 0.470779C55.7338 0.730783 55.523 0.941558 55.263 0.941558C55.003 0.941558 54.7922 0.730783 54.7922 0.470779C54.7922 0.210775 55.003 0 55.263 0C55.523 0 55.7338 0.210775 55.7338 0.470779Z" fill="#161F32" fill-opacity="0.44"/>
<path d="M55.7338 42.8409C55.7338 43.1009 55.523 43.3117 55.263 43.3117C55.003 43.3117 54.7922 43.1009 54.7922 42.8409C54.7922 42.5809 55.003 42.3701 55.263 42.3701C55.523 42.3701 55.7338 42.5809 55.7338 42.8409Z" fill="#161F32" fill-opacity="0.44"/>
<path d="M55.7338 85.211C55.7338 85.471 55.523 85.6818 55.263 85.6818C55.003 85.6818 54.7922 85.471 54.7922 85.211C54.7922 84.951 55.003 84.7403 55.263 84.7403C55.523 84.7403 55.7338 84.951 55.7338 85.211Z" fill="#161F32" fill-opacity="0.44"/>
<path d="M55.7338 8.94481C55.7338 9.20481 55.523 9.41558 55.263 9.41558C55.003 9.41558 54.7922 9.20481 54.7922 8.94481C54.7922 8.6848 55.003 8.47403 55.263 8.47403C55.523 8.47403 55.7338 8.6848 55.7338 8.94481Z" fill="#161F32" fill-opacity="0.44"/>
<path d="M55.7338 51.3149C55.7338 51.5749 55.523 51.7857 55.263 51.7857C55.003 51.7857 54.7922 51.5749 54.7922 51.3149C54.7922 51.0549 55.003 50.8442 55.263 50.8442C55.523 50.8442 55.7338 51.0549 55.7338 51.3149Z" fill="#161F32" fill-opacity="0.44"/>
<path d="M55.7338 93.6851C55.7338 93.9451 55.523 94.1559 55.263 94.1559C55.003 94.1559 54.7922 93.9451 54.7922 93.6851C54.7922 93.4251 55.003 93.2143 55.263 93.2143C55.523 93.2143 55.7338 93.4251 55.7338 93.6851Z" fill="#161F32" fill-opacity="0.44"/>
<path d="M55.7338 127.581C55.7338 127.841 55.523 128.052 55.263 128.052C55.003 128.052 54.7922 127.841 54.7922 127.581C54.7922 127.321 55.003 127.11 55.263 127.11C55.523 127.11 55.7338 127.321 55.7338 127.581Z" fill="#161F32" fill-opacity="0.44"/>
<path d="M55.7338 17.4188C55.7338 17.6788 55.523 17.8896 55.263 17.8896C55.003 17.8896 54.7922 17.6788 54.7922 17.4188C54.7922 17.1588 55.003 16.9481 55.263 16.9481C55.523 16.9481 55.7338 17.1588 55.7338 17.4188Z" fill="#161F32" fill-opacity="0.44"/>
<path d="M55.7338 59.789C55.7338 60.049 55.523 60.2597 55.263 60.2597C55.003 60.2597 54.7922 60.049 54.7922 59.789C54.7922 59.529 55.003 59.3182 55.263 59.3182C55.523 59.3182 55.7338 59.529 55.7338 59.789Z" fill="#161F32" fill-opacity="0.44"/>
<path d="M55.7338 102.159C55.7338 102.419 55.523 102.63 55.263 102.63C55.003 102.63 54.7922 102.419 54.7922 102.159C54.7922 101.899 55.003 101.688 55.263 101.688C55.523 101.688 55.7338 101.899 55.7338 102.159Z" fill="#161F32" fill-opacity="0.44"/>
<path d="M55.7338 136.055C55.7338 136.315 55.523 136.526 55.263 136.526C55.003 136.526 54.7922 136.315 54.7922 136.055C54.7922 135.795 55.003 135.584 55.263 135.584C55.523 135.584 55.7338 135.795 55.7338 136.055Z" fill="#161F32" fill-opacity="0.44"/>
<path d="M55.7338 144.529C55.7338 144.789 55.523 145 55.263 145C55.003 145 54.7922 144.789 54.7922 144.529C54.7922 144.269 55.003 144.058 55.263 144.058C55.523 144.058 55.7338 144.269 55.7338 144.529Z" fill="#161F32" fill-opacity="0.44"/>
<path d="M55.7338 25.8929C55.7338 26.1529 55.523 26.3636 55.263 26.3636C55.003 26.3636 54.7922 26.1529 54.7922 25.8929C54.7922 25.6329 55.003 25.4221 55.263 25.4221C55.523 25.4221 55.7338 25.6329 55.7338 25.8929Z" fill="#161F32" fill-opacity="0.44"/>
<path d="M55.7338 68.263C55.7338 68.523 55.523 68.7338 55.263 68.7338C55.003 68.7338 54.7922 68.523 54.7922 68.263C54.7922 68.003 55.003 67.7922 55.263 67.7922C55.523 67.7922 55.7338 68.003 55.7338 68.263Z" fill="#161F32" fill-opacity="0.44"/>
<path d="M55.7338 110.633C55.7338 110.893 55.523 111.104 55.263 111.104C55.003 111.104 54.7922 110.893 54.7922 110.633C54.7922 110.373 55.003 110.162 55.263 110.162C55.523 110.162 55.7338 110.373 55.7338 110.633Z" fill="#161F32" fill-opacity="0.44"/>
<path d="M55.7338 34.3669C55.7338 34.6269 55.523 34.8377 55.263 34.8377C55.003 34.8377 54.7922 34.6269 54.7922 34.3669C54.7922 34.1069 55.003 33.8961 55.263 33.8961C55.523 33.8961 55.7338 34.1069 55.7338 34.3669Z" fill="#161F32" fill-opacity="0.44"/>
<path d="M55.7338 76.737C55.7338 76.997 55.523 77.2078 55.263 77.2078C55.003 77.2078 54.7922 76.997 54.7922 76.737C54.7922 76.477 55.003 76.2662 55.263 76.2662C55.523 76.2662 55.7338 76.477 55.7338 76.737Z" fill="#161F32" fill-opacity="0.44"/>
<path d="M55.7338 119.107C55.7338 119.367 55.523 119.578 55.263 119.578C55.003 119.578 54.7922 119.367 54.7922 119.107C54.7922 118.847 55.003 118.636 55.263 118.636C55.523 118.636 55.7338 118.847 55.7338 119.107Z" fill="#161F32" fill-opacity="0.44"/>
<path d="M106.578 0.470779C106.578 0.730783 106.367 0.941558 106.107 0.941558C105.847 0.941558 105.636 0.730783 105.636 0.470779C105.636 0.210775 105.847 0 106.107 0C106.367 0 106.578 0.210775 106.578 0.470779Z" fill="#161F32" fill-opacity="0.44"/>
<path d="M106.578 42.8409C106.578 43.1009 106.367 43.3117 106.107 43.3117C105.847 43.3117 105.636 43.1009 105.636 42.8409C105.636 42.5809 105.847 42.3701 106.107 42.3701C106.367 42.3701 106.578 42.5809 106.578 42.8409Z" fill="#161F32" fill-opacity="0.44"/>
<path d="M106.578 85.211C106.578 85.471 106.367 85.6818 106.107 85.6818C105.847 85.6818 105.636 85.471 105.636 85.211C105.636 84.951 105.847 84.7403 106.107 84.7403C106.367 84.7403 106.578 84.951 106.578 85.211Z" fill="#161F32" fill-opacity="0.44"/>
<path d="M106.578 8.94481C106.578 9.20481 106.367 9.41558 106.107 9.41558C105.847 9.41558 105.636 9.20481 105.636 8.94481C105.636 8.6848 105.847 8.47403 106.107 8.47403C106.367 8.47403 106.578 8.6848 106.578 8.94481Z" fill="#161F32" fill-opacity="0.44"/>
<path d="M106.578 51.3149C106.578 51.5749 106.367 51.7857 106.107 51.7857C105.847 51.7857 105.636 51.5749 105.636 51.3149C105.636 51.0549 105.847 50.8442 106.107 50.8442C106.367 50.8442 106.578 51.0549 106.578 51.3149Z" fill="#161F32" fill-opacity="0.44"/>
<path d="M106.578 93.6851C106.578 93.9451 106.367 94.1559 106.107 94.1559C105.847 94.1559 105.636 93.9451 105.636 93.6851C105.636 93.4251 105.847 93.2143 106.107 93.2143C106.367 93.2143 106.578 93.4251 106.578 93.6851Z" fill="#161F32" fill-opacity="0.44"/>
<path d="M106.578 127.581C106.578 127.841 106.367 128.052 106.107 128.052C105.847 128.052 105.636 127.841 105.636 127.581C105.636 127.321 105.847 127.11 106.107 127.11C106.367 127.11 106.578 127.321 106.578 127.581Z" fill="#161F32" fill-opacity="0.44"/>
<path d="M106.578 17.4188C106.578 17.6788 106.367 17.8896 106.107 17.8896C105.847 17.8896 105.636 17.6788 105.636 17.4188C105.636 17.1588 105.847 16.9481 106.107 16.9481C106.367 16.9481 106.578 17.1588 106.578 17.4188Z" fill="#161F32" fill-opacity="0.44"/>
<path d="M106.578 59.789C106.578 60.049 106.367 60.2597 106.107 60.2597C105.847 60.2597 105.636 60.049 105.636 59.789C105.636 59.529 105.847 59.3182 106.107 59.3182C106.367 59.3182 106.578 59.529 106.578 59.789Z" fill="#161F32" fill-opacity="0.44"/>
<path d="M106.578 102.159C106.578 102.419 106.367 102.63 106.107 102.63C105.847 102.63 105.636 102.419 105.636 102.159C105.636 101.899 105.847 101.688 106.107 101.688C106.367 101.688 106.578 101.899 106.578 102.159Z" fill="#161F32" fill-opacity="0.44"/>
<path d="M106.578 136.055C106.578 136.315 106.367 136.526 106.107 136.526C105.847 136.526 105.636 136.315 105.636 136.055C105.636 135.795 105.847 135.584 106.107 135.584C106.367 135.584 106.578 135.795 106.578 136.055Z" fill="#161F32" fill-opacity="0.44"/>
<path d="M106.578 144.529C106.578 144.789 106.367 145 106.107 145C105.847 145 105.636 144.789 105.636 144.529C105.636 144.269 105.847 144.058 106.107 144.058C106.367 144.058 106.578 144.269 106.578 144.529Z" fill="#161F32" fill-opacity="0.44"/>
<path d="M106.578 25.8929C106.578 26.1529 106.367 26.3636 106.107 26.3636C105.847 26.3636 105.636 26.1529 105.636 25.8929C105.636 25.6329 105.847 25.4221 106.107 25.4221C106.367 25.4221 106.578 25.6329 106.578 25.8929Z" fill="#161F32" fill-opacity="0.44"/>
<path d="M106.578 68.263C106.578 68.523 106.367 68.7338 106.107 68.7338C105.847 68.7338 105.636 68.523 105.636 68.263C105.636 68.003 105.847 67.7922 106.107 67.7922C106.367 67.7922 106.578 68.003 106.578 68.263Z" fill="#161F32" fill-opacity="0.44"/>
<path d="M106.578 110.633C106.578 110.893 106.367 111.104 106.107 111.104C105.847 111.104 105.636 110.893 105.636 110.633C105.636 110.373 105.847 110.162 106.107 110.162C106.367 110.162 106.578 110.373 106.578 110.633Z" fill="#161F32" fill-opacity="0.44"/>
<path d="M106.578 34.3669C106.578 34.6269 106.367 34.8377 106.107 34.8377C105.847 34.8377 105.636 34.6269 105.636 34.3669C105.636 34.1069 105.847 33.8961 106.107 33.8961C106.367 33.8961 106.578 34.1069 106.578 34.3669Z" fill="#161F32" fill-opacity="0.44"/>
<path d="M106.578 76.737C106.578 76.997 106.367 77.2078 106.107 77.2078C105.847 77.2078 105.636 76.997 105.636 76.737C105.636 76.477 105.847 76.2662 106.107 76.2662C106.367 76.2662 106.578 76.477 106.578 76.737Z" fill="#161F32" fill-opacity="0.44"/>
<path d="M106.578 119.107C106.578 119.367 106.367 119.578 106.107 119.578C105.847 119.578 105.636 119.367 105.636 119.107C105.636 118.847 105.847 118.636 106.107 118.636C106.367 118.636 106.578 118.847 106.578 119.107Z" fill="#161F32" fill-opacity="0.44"/>
<path d="M30.3117 0.470779C30.3117 0.730783 30.1009 0.941558 29.8409 0.941558C29.5809 0.941558 29.3701 0.730783 29.3701 0.470779C29.3701 0.210775 29.5809 0 29.8409 0C30.1009 0 30.3117 0.210775 30.3117 0.470779Z" fill="#161F32" fill-opacity="0.44"/>
<path d="M30.3117 42.8409C30.3117 43.1009 30.1009 43.3117 29.8409 43.3117C29.5809 43.3117 29.3701 43.1009 29.3701 42.8409C29.3701 42.5809 29.5809 42.3701 29.8409 42.3701C30.1009 42.3701 30.3117 42.5809 30.3117 42.8409Z" fill="#161F32" fill-opacity="0.44"/>
<path d="M30.3117 85.211C30.3117 85.471 30.1009 85.6818 29.8409 85.6818C29.5809 85.6818 29.3701 85.471 29.3701 85.211C29.3701 84.951 29.5809 84.7403 29.8409 84.7403C30.1009 84.7403 30.3117 84.951 30.3117 85.211Z" fill="#161F32" fill-opacity="0.44"/>
<path d="M30.3117 8.94481C30.3117 9.20481 30.1009 9.41558 29.8409 9.41558C29.5809 9.41558 29.3701 9.20481 29.3701 8.94481C29.3701 8.6848 29.5809 8.47403 29.8409 8.47403C30.1009 8.47403 30.3117 8.6848 30.3117 8.94481Z" fill="#161F32" fill-opacity="0.44"/>
<path d="M30.3117 51.3149C30.3117 51.5749 30.1009 51.7857 29.8409 51.7857C29.5809 51.7857 29.3701 51.5749 29.3701 51.3149C29.3701 51.0549 29.5809 50.8442 29.8409 50.8442C30.1009 50.8442 30.3117 51.0549 30.3117 51.3149Z" fill="#161F32" fill-opacity="0.44"/>
<path d="M30.3117 93.6851C30.3117 93.9451 30.1009 94.1559 29.8409 94.1559C29.5809 94.1559 29.3701 93.9451 29.3701 93.6851C29.3701 93.4251 29.5809 93.2143 29.8409 93.2143C30.1009 93.2143 30.3117 93.4251 30.3117 93.6851Z" fill="#161F32" fill-opacity="0.44"/>
<path d="M30.3117 127.581C30.3117 127.841 30.1009 128.052 29.8409 128.052C29.5809 128.052 29.3701 127.841 29.3701 127.581C29.3701 127.321 29.5809 127.11 29.8409 127.11C30.1009 127.11 30.3117 127.321 30.3117 127.581Z" fill="#161F32" fill-opacity="0.44"/>
<path d="M30.3117 17.4188C30.3117 17.6788 30.1009 17.8896 29.8409 17.8896C29.5809 17.8896 29.3701 17.6788 29.3701 17.4188C29.3701 17.1588 29.5809 16.9481 29.8409 16.9481C30.1009 16.9481 30.3117 17.1588 30.3117 17.4188Z" fill="#161F32" fill-opacity="0.44"/>
<path d="M30.3117 59.789C30.3117 60.049 30.1009 60.2597 29.8409 60.2597C29.5809 60.2597 29.3701 60.049 29.3701 59.789C29.3701 59.529 29.5809 59.3182 29.8409 59.3182C30.1009 59.3182 30.3117 59.529 30.3117 59.789Z" fill="#161F32" fill-opacity="0.44"/>
<path d="M30.3117 102.159C30.3117 102.419 30.1009 102.63 29.8409 102.63C29.5809 102.63 29.3701 102.419 29.3701 102.159C29.3701 101.899 29.5809 101.688 29.8409 101.688C30.1009 101.688 30.3117 101.899 30.3117 102.159Z" fill="#161F32" fill-opacity="0.44"/>
<path d="M30.3117 136.055C30.3117 136.315 30.1009 136.526 29.8409 136.526C29.5809 136.526 29.3701 136.315 29.3701 136.055C29.3701 135.795 29.5809 135.584 29.8409 135.584C30.1009 135.584 30.3117 135.795 30.3117 136.055Z" fill="#161F32" fill-opacity="0.44"/>
<path d="M30.3117 144.529C30.3117 144.789 30.1009 145 29.8409 145C29.5809 145 29.3701 144.789 29.3701 144.529C29.3701 144.269 29.5809 144.058 29.8409 144.058C30.1009 144.058 30.3117 144.269 30.3117 144.529Z" fill="#161F32" fill-opacity="0.44"/>
<path d="M30.3117 25.8929C30.3117 26.1529 30.1009 26.3636 29.8409 26.3636C29.5809 26.3636 29.3701 26.1529 29.3701 25.8929C29.3701 25.6329 29.5809 25.4221 29.8409 25.4221C30.1009 25.4221 30.3117 25.6329 30.3117 25.8929Z" fill="#161F32" fill-opacity="0.44"/>
<path d="M30.3117 68.263C30.3117 68.523 30.1009 68.7338 29.8409 68.7338C29.5809 68.7338 29.3701 68.523 29.3701 68.263C29.3701 68.003 29.5809 67.7922 29.8409 67.7922C30.1009 67.7922 30.3117 68.003 30.3117 68.263Z" fill="#161F32" fill-opacity="0.44"/>
<path d="M30.3117 110.633C30.3117 110.893 30.1009 111.104 29.8409 111.104C29.5809 111.104 29.3701 110.893 29.3701 110.633C29.3701 110.373 29.5809 110.162 29.8409 110.162C30.1009 110.162 30.3117 110.373 30.3117 110.633Z" fill="#161F32" fill-opacity="0.44"/>
<path d="M30.3117 34.3669C30.3117 34.6269 30.1009 34.8377 29.8409 34.8377C29.5809 34.8377 29.3701 34.6269 29.3701 34.3669C29.3701 34.1069 29.5809 33.8961 29.8409 33.8961C30.1009 33.8961 30.3117 34.1069 30.3117 34.3669Z" fill="#161F32" fill-opacity="0.44"/>
<path d="M30.3117 76.737C30.3117 76.997 30.1009 77.2078 29.8409 77.2078C29.5809 77.2078 29.3701 76.997 29.3701 76.737C29.3701 76.477 29.5809 76.2662 29.8409 76.2662C30.1009 76.2662 30.3117 76.477 30.3117 76.737Z" fill="#161F32" fill-opacity="0.44"/>
<path d="M30.3117 119.107C30.3117 119.367 30.1009 119.578 29.8409 119.578C29.5809 119.578 29.3701 119.367 29.3701 119.107C29.3701 118.847 29.5809 118.636 29.8409 118.636C30.1009 118.636 30.3117 118.847 30.3117 119.107Z" fill="#161F32" fill-opacity="0.44"/>
<path d="M81.1559 0.470779C81.1559 0.730783 80.9451 0.941558 80.6851 0.941558C80.4251 0.941558 80.2143 0.730783 80.2143 0.470779C80.2143 0.210775 80.4251 0 80.6851 0C80.9451 0 81.1559 0.210775 81.1559 0.470779Z" fill="#161F32" fill-opacity="0.44"/>
<path d="M81.1559 42.8409C81.1559 43.1009 80.9451 43.3117 80.6851 43.3117C80.4251 43.3117 80.2143 43.1009 80.2143 42.8409C80.2143 42.5809 80.4251 42.3701 80.6851 42.3701C80.9451 42.3701 81.1559 42.5809 81.1559 42.8409Z" fill="#161F32" fill-opacity="0.44"/>
<path d="M81.1559 85.211C81.1559 85.471 80.9451 85.6818 80.6851 85.6818C80.4251 85.6818 80.2143 85.471 80.2143 85.211C80.2143 84.951 80.4251 84.7403 80.6851 84.7403C80.9451 84.7403 81.1559 84.951 81.1559 85.211Z" fill="#161F32" fill-opacity="0.44"/>
<path d="M81.1559 8.94481C81.1559 9.20481 80.9451 9.41558 80.6851 9.41558C80.4251 9.41558 80.2143 9.20481 80.2143 8.94481C80.2143 8.6848 80.4251 8.47403 80.6851 8.47403C80.9451 8.47403 81.1559 8.6848 81.1559 8.94481Z" fill="#161F32" fill-opacity="0.44"/>
<path d="M81.1559 51.3149C81.1559 51.5749 80.9451 51.7857 80.6851 51.7857C80.4251 51.7857 80.2143 51.5749 80.2143 51.3149C80.2143 51.0549 80.4251 50.8442 80.6851 50.8442C80.9451 50.8442 81.1559 51.0549 81.1559 51.3149Z" fill="#161F32" fill-opacity="0.44"/>
<path d="M81.1559 93.6851C81.1559 93.9451 80.9451 94.1559 80.6851 94.1559C80.4251 94.1559 80.2143 93.9451 80.2143 93.6851C80.2143 93.4251 80.4251 93.2143 80.6851 93.2143C80.9451 93.2143 81.1559 93.4251 81.1559 93.6851Z" fill="#161F32" fill-opacity="0.44"/>
<path d="M81.1559 127.581C81.1559 127.841 80.9451 128.052 80.6851 128.052C80.4251 128.052 80.2143 127.841 80.2143 127.581C80.2143 127.321 80.4251 127.11 80.6851 127.11C80.9451 127.11 81.1559 127.321 81.1559 127.581Z" fill="#161F32" fill-opacity="0.44"/>
<path d="M81.1559 17.4188C81.1559 17.6788 80.9451 17.8896 80.6851 17.8896C80.4251 17.8896 80.2143 17.6788 80.2143 17.4188C80.2143 17.1588 80.4251 16.9481 80.6851 16.9481C80.9451 16.9481 81.1559 17.1588 81.1559 17.4188Z" fill="#161F32" fill-opacity="0.44"/>
<path d="M81.1559 59.789C81.1559 60.049 80.9451 60.2597 80.6851 60.2597C80.4251 60.2597 80.2143 60.049 80.2143 59.789C80.2143 59.529 80.4251 59.3182 80.6851 59.3182C80.9451 59.3182 81.1559 59.529 81.1559 59.789Z" fill="#161F32" fill-opacity="0.44"/>
<path d="M81.1559 102.159C81.1559 102.419 80.9451 102.63 80.6851 102.63C80.4251 102.63 80.2143 102.419 80.2143 102.159C80.2143 101.899 80.4251 101.688 80.6851 101.688C80.9451 101.688 81.1559 101.899 81.1559 102.159Z" fill="#161F32" fill-opacity="0.44"/>
<path d="M81.1559 136.055C81.1559 136.315 80.9451 136.526 80.6851 136.526C80.4251 136.526 80.2143 136.315 80.2143 136.055C80.2143 135.795 80.4251 135.584 80.6851 135.584C80.9451 135.584 81.1559 135.795 81.1559 136.055Z" fill="#161F32" fill-opacity="0.44"/>
<path d="M81.1559 144.529C81.1559 144.789 80.9451 145 80.6851 145C80.4251 145 80.2143 144.789 80.2143 144.529C80.2143 144.269 80.4251 144.058 80.6851 144.058C80.9451 144.058 81.1559 144.269 81.1559 144.529Z" fill="#161F32" fill-opacity="0.44"/>
<path d="M81.1559 25.8929C81.1559 26.1529 80.9451 26.3636 80.6851 26.3636C80.4251 26.3636 80.2143 26.1529 80.2143 25.8929C80.2143 25.6329 80.4251 25.4221 80.6851 25.4221C80.9451 25.4221 81.1559 25.6329 81.1559 25.8929Z" fill="#161F32" fill-opacity="0.44"/>
<path d="M81.1559 68.263C81.1559 68.523 80.9451 68.7338 80.6851 68.7338C80.4251 68.7338 80.2143 68.523 80.2143 68.263C80.2143 68.003 80.4251 67.7922 80.6851 67.7922C80.9451 67.7922 81.1559 68.003 81.1559 68.263Z" fill="#161F32" fill-opacity="0.44"/>
<path d="M81.1559 110.633C81.1559 110.893 80.9451 111.104 80.6851 111.104C80.4251 111.104 80.2143 110.893 80.2143 110.633C80.2143 110.373 80.4251 110.162 80.6851 110.162C80.9451 110.162 81.1559 110.373 81.1559 110.633Z" fill="#161F32" fill-opacity="0.44"/>
<path d="M81.1559 34.3669C81.1559 34.6269 80.9451 34.8377 80.6851 34.8377C80.4251 34.8377 80.2143 34.6269 80.2143 34.3669C80.2143 34.1069 80.4251 33.8961 80.6851 33.8961C80.9451 33.8961 81.1559 34.1069 81.1559 34.3669Z" fill="#161F32" fill-opacity="0.44"/>
<path d="M81.1559 76.737C81.1559 76.997 80.9451 77.2078 80.6851 77.2078C80.4251 77.2078 80.2143 76.997 80.2143 76.737C80.2143 76.477 80.4251 76.2662 80.6851 76.2662C80.9451 76.2662 81.1559 76.477 81.1559 76.737Z" fill="#161F32" fill-opacity="0.44"/>
<path d="M81.1559 119.107C81.1559 119.367 80.9451 119.578 80.6851 119.578C80.4251 119.578 80.2143 119.367 80.2143 119.107C80.2143 118.847 80.4251 118.636 80.6851 118.636C80.9451 118.636 81.1559 118.847 81.1559 119.107Z" fill="#161F32" fill-opacity="0.44"/>
<path d="M132 0.470779C132 0.730783 131.789 0.941558 131.529 0.941558C131.269 0.941558 131.058 0.730783 131.058 0.470779C131.058 0.210775 131.269 0 131.529 0C131.789 0 132 0.210775 132 0.470779Z" fill="#161F32" fill-opacity="0.44"/>
<path d="M132 42.8409C132 43.1009 131.789 43.3117 131.529 43.3117C131.269 43.3117 131.058 43.1009 131.058 42.8409C131.058 42.5809 131.269 42.3701 131.529 42.3701C131.789 42.3701 132 42.5809 132 42.8409Z" fill="#161F32" fill-opacity="0.44"/>
<path d="M132 85.211C132 85.471 131.789 85.6818 131.529 85.6818C131.269 85.6818 131.058 85.471 131.058 85.211C131.058 84.951 131.269 84.7403 131.529 84.7403C131.789 84.7403 132 84.951 132 85.211Z" fill="#161F32" fill-opacity="0.44"/>
<path d="M132 8.94481C132 9.20481 131.789 9.41558 131.529 9.41558C131.269 9.41558 131.058 9.20481 131.058 8.94481C131.058 8.6848 131.269 8.47403 131.529 8.47403C131.789 8.47403 132 8.6848 132 8.94481Z" fill="#161F32" fill-opacity="0.44"/>
<path d="M132 51.3149C132 51.5749 131.789 51.7857 131.529 51.7857C131.269 51.7857 131.058 51.5749 131.058 51.3149C131.058 51.0549 131.269 50.8442 131.529 50.8442C131.789 50.8442 132 51.0549 132 51.3149Z" fill="#161F32" fill-opacity="0.44"/>
<path d="M132 93.6851C132 93.9451 131.789 94.1559 131.529 94.1559C131.269 94.1559 131.058 93.9451 131.058 93.6851C131.058 93.4251 131.269 93.2143 131.529 93.2143C131.789 93.2143 132 93.4251 132 93.6851Z" fill="#161F32" fill-opacity="0.44"/>
<path d="M132 127.581C132 127.841 131.789 128.052 131.529 128.052C131.269 128.052 131.058 127.841 131.058 127.581C131.058 127.321 131.269 127.11 131.529 127.11C131.789 127.11 132 127.321 132 127.581Z" fill="#161F32" fill-opacity="0.44"/>
<path d="M132 17.4188C132 17.6788 131.789 17.8896 131.529 17.8896C131.269 17.8896 131.058 17.6788 131.058 17.4188C131.058 17.1588 131.269 16.9481 131.529 16.9481C131.789 16.9481 132 17.1588 132 17.4188Z" fill="#161F32" fill-opacity="0.44"/>
<path d="M132 59.789C132 60.049 131.789 60.2597 131.529 60.2597C131.269 60.2597 131.058 60.049 131.058 59.789C131.058 59.529 131.269 59.3182 131.529 59.3182C131.789 59.3182 132 59.529 132 59.789Z" fill="#161F32" fill-opacity="0.44"/>
<path d="M132 102.159C132 102.419 131.789 102.63 131.529 102.63C131.269 102.63 131.058 102.419 131.058 102.159C131.058 101.899 131.269 101.688 131.529 101.688C131.789 101.688 132 101.899 132 102.159Z" fill="#161F32" fill-opacity="0.44"/>
<path d="M132 136.055C132 136.315 131.789 136.526 131.529 136.526C131.269 136.526 131.058 136.315 131.058 136.055C131.058 135.795 131.269 135.584 131.529 135.584C131.789 135.584 132 135.795 132 136.055Z" fill="#161F32" fill-opacity="0.44"/>
<path d="M132 144.529C132 144.789 131.789 145 131.529 145C131.269 145 131.058 144.789 131.058 144.529C131.058 144.269 131.269 144.058 131.529 144.058C131.789 144.058 132 144.269 132 144.529Z" fill="#161F32" fill-opacity="0.44"/>
<path d="M132 25.8929C132 26.1529 131.789 26.3636 131.529 26.3636C131.269 26.3636 131.058 26.1529 131.058 25.8929C131.058 25.6329 131.269 25.4221 131.529 25.4221C131.789 25.4221 132 25.6329 132 25.8929Z" fill="#161F32" fill-opacity="0.44"/>
<path d="M132 68.263C132 68.523 131.789 68.7338 131.529 68.7338C131.269 68.7338 131.058 68.523 131.058 68.263C131.058 68.003 131.269 67.7922 131.529 67.7922C131.789 67.7922 132 68.003 132 68.263Z" fill="#161F32" fill-opacity="0.44"/>
<path d="M132 110.633C132 110.893 131.789 111.104 131.529 111.104C131.269 111.104 131.058 110.893 131.058 110.633C131.058 110.373 131.269 110.162 131.529 110.162C131.789 110.162 132 110.373 132 110.633Z" fill="#161F32" fill-opacity="0.44"/>
<path d="M132 34.3669C132 34.6269 131.789 34.8377 131.529 34.8377C131.269 34.8377 131.058 34.6269 131.058 34.3669C131.058 34.1069 131.269 33.8961 131.529 33.8961C131.789 33.8961 132 34.1069 132 34.3669Z" fill="#161F32" fill-opacity="0.44"/>
<path d="M132 76.737C132 76.997 131.789 77.2078 131.529 77.2078C131.269 77.2078 131.058 76.997 131.058 76.737C131.058 76.477 131.269 76.2662 131.529 76.2662C131.789 76.2662 132 76.477 132 76.737Z" fill="#161F32" fill-opacity="0.44"/>
<path d="M132 119.107C132 119.367 131.789 119.578 131.529 119.578C131.269 119.578 131.058 119.367 131.058 119.107C131.058 118.847 131.269 118.636 131.529 118.636C131.789 118.636 132 118.847 132 119.107Z" fill="#161F32" fill-opacity="0.44"/>
</svg>
